<?xml version="1.0" encoding="utf-8"?>
<!-- Generator: Adobe Illustrator 25.4.1, SVG Export Plug-In . SVG Version: 6.00 Build 0)  -->
<svg version="1.1" id="Layer_1" xmlns="http://www.w3.org/2000/svg" xmlns:xlink="http://www.w3.org/1999/xlink" x="0px" y="0px"
	 viewBox="0 0 16 16" style="enable-background:new 0 0 16 16;" xml:space="preserve">
<style type="text/css">
	.st0{fill:#D98228;}
	.st1{fill:#D98128;}
	.st2{fill:#828387;}
	.st3{fill:#828388;}
	.st4{fill:#828287;}
	.st5{fill:#828288;}
	.st6{fill:#818387;}
	.st7{fill:#838386;}
	.st8{fill:#838387;}
	.st9{fill:#D48634;}
	.st10{fill:#D7832B;}
	.st11{fill:#838389;}
	.st12{fill:#D6842B;}
	.st13{fill:#838488;}
	.st14{fill:#828386;}
	.st15{fill:#D58636;}
	.st16{fill:#D0873C;}
	.st17{fill:#D28632;}
	.st18{fill:#D58531;}
	.st19{fill:#CD8E4C;}
	.st20{fill:#D6843B;}
	.st21{fill:#D78427;}
	.st22{fill:#D38739;}
	.st23{fill:#D88326;}
	.st24{fill:#858687;}
	.st25{fill:#D08B41;}
	.st26{fill:#D08C44;}
	.st27{fill:#838484;}
	.st28{fill:#D9832C;}
	.st29{fill:#8B8A8A;}
	.st30{fill:#DC832F;}
	.st31{fill:#D48531;}
	.st32{fill:#D18A40;}
	.st33{fill:#8A8B87;}
	.st34{fill:#858686;}
	.st35{fill:#D08A3D;}
	.st36{fill:#CC8F50;}
	.st37{fill:#D58535;}
	.st38{fill:#C69055;}
	.st39{fill:#CB8A47;}
	.st40{fill:#A6A4A4;}
	.st41{fill:#8A8C8B;}
	.st42{fill:#D78834;}
	.st43{fill:#848587;}
	.st44{fill:#8C888B;}
	.st45{fill:#808386;}
	.st46{fill:#838584;}
	.st47{fill:#818787;}
	.st48{fill:#7C7F82;}
	.st49{fill:#CD8E4B;}
	.st50{fill:#CF914D;}
	.st51{fill:#878788;}
	.st52{fill:#CC9152;}
	.st53{fill:#D4D1CF;}
	.st54{fill:#D08D45;}
	.st55{fill:#87888C;}
	.st56{fill:#CB8E50;}
	.st57{fill:#D78332;}
	.st58{fill:#A9AAAA;}
	.st59{fill:#CB9457;}
	.st60{fill:#D28B41;}
	.st61{fill:#888791;}
	.st62{fill:#828283;}
	.st63{fill:#87888A;}
	.st64{fill:#898584;}
	.st65{fill:#88888B;}
	.st66{fill:#CB914F;}
	.st67{fill:#949394;}
	.st68{fill:#D5832D;}
	.st69{fill:#CD9149;}
	.st70{fill:#C4986A;}
	.st71{fill:#999A99;}
	.st72{fill:#CF8A3E;}
	.st73{fill:#E9E9E9;}
	.st74{fill:#CC9151;}
	.st75{fill:#C98E4B;}
	.st76{fill:#DA8328;}
	.st77{fill:#CC9459;}
	.st78{fill:#ADA9A9;}
	.st79{fill:#888489;}
	.st80{fill:#BBBABA;}
	.st81{fill:#CD9251;}
	.st82{fill:#8D8B8C;}
	.st83{fill:#CA9A6B;}
	.st84{fill:#CE9458;}
	.st85{fill:#D88122;}
	.st86{fill:#DB8123;}
	.st87{fill:#DC8122;}
	.st88{fill:#DA8121;}
	.st89{fill:#D48425;}
	.st90{fill:#D98123;}
	.st91{fill:#DD7F2A;}
	.st92{fill:#D88324;}
	.st93{fill:#D48526;}
	.st94{fill:#D68423;}
	.st95{fill:#DD8122;}
	.st96{fill:#D68130;}
	.st97{fill:#D58330;}
	.st98{fill:#D48331;}
	.st99{fill:#D78224;}
	.st100{fill:#DC8121;}
	.st101{fill:#D6811C;}
	.st102{fill:#D7811D;}
	.st103{fill:#D6852C;}
	.st104{fill:#D9811C;}
	.st105{fill:#DA8226;}
	.st106{fill:#D4832E;}
	.st107{fill:#DE8024;}
	.st108{fill:#DD8023;}
	.st109{fill:#DB8222;}
	.st110{fill:#D7811F;}
	.st111{fill:#D98122;}
	.st112{fill:#DE7E20;}
	.st113{fill:#DE7F20;}
	.st114{fill:#DA821F;}
	.st115{fill:#DF7F22;}
	.st116{fill:#878691;}
	.st117{fill:#7D7D80;}
	.st118{fill:#7E7F7D;}
	.st119{fill:#7F7F83;}
	.st120{fill:#818480;}
	.st121{fill:#83837E;}
	.st122{fill:#81817D;}
	.st123{fill:#83827E;}
	.st124{fill:#817F80;}
	.st125{fill:#81837D;}
	.st126{fill:#D78422;}
	.st127{fill:#D48620;}
	.st128{fill:#D6821E;}
	.st129{fill:#D78229;}
	.st130{fill:#D98320;}
	.st131{fill:#DE8130;}
	.st132{fill:#D98227;}
	.st133{fill:#D68329;}
	.st134{fill:#D6841F;}
	.st135{fill:#D6832D;}
	.st136{fill:#D78231;}
	.st137{fill:#D5812F;}
	.st138{fill:#D88327;}
	.st139{fill:#D98229;}
	.st140{fill:#D3842A;}
	.st141{fill:#D58124;}
	.st142{fill:#7F838B;}
	.st143{fill:#838283;}
	.st144{fill:#81837C;}
	.st145{fill:#7E8391;}
	.st146{fill:#84817B;}
	.st147{fill:#7B7F7F;}
	.st148{fill:#DA8227;}
	.st149{fill:#D47C1E;}
	.st150{fill:#D88222;}
	.st151{fill:#D98224;}
	.st152{fill:#838186;}
	.st153{fill:#D4832C;}
</style>
<g>
	<path class="st0" d="M7.6,3.81c-0.08-0.04-0.15-0.1-0.19-0.17C7.37,3.55,7.33,3.47,7.26,3.4C7.18,3.27,7.19,3.12,7.17,2.97
		C7.12,2.65,7.03,2.34,6.78,2.1C6.77,2.01,6.77,2.01,6.66,1.99C6.61,1.98,6.56,1.97,6.51,1.94C6.37,1.88,6.36,1.82,6.47,1.71
		C6.5,1.69,6.53,1.67,6.55,1.64c0.03-0.05,0.08-0.09,0.12-0.18C6.57,1.55,6.49,1.61,6.41,1.68C6.34,1.75,6.26,1.82,6.35,1.93
		C6.35,1.97,6.34,2,6.33,2.03C6.31,2.06,6.29,2.09,6.27,2.12C6.26,2.13,6.26,2.14,6.27,2.15c0.02,0,0.03-0.02,0.04-0.02
		c0.13,0.09,0.24,0.19,0.3,0.33C6.57,2.56,6.64,2.6,6.73,2.63c0.19,0.3,0.22,0.6,0.07,0.92C6.74,3.66,6.7,3.77,6.65,3.88
		c-0.06,0.15-0.11,0.3-0.15,0.46C6.49,4.38,6.49,4.43,6.47,4.47c0,0,0.01,0,0.01,0.01c0-0.02,0.03,0.01,0.01-0.01
		c0.01,0,0.02,0,0.03,0.01l0,0C6.56,4.64,6.61,4.8,6.72,4.93c0.08,0.11,0.06,0.16-0.07,0.2C6.57,5.15,6.5,5.2,6.42,5.21
		C6.36,5.2,6.33,5.15,6.32,5.09c0.03-0.06,0.11-0.06,0.16-0.12C6.41,5.01,6.35,5.03,6.31,5.08c0,0-0.01,0-0.02,0
		c-0.01,0-0.01,0-0.02,0C6.39,5.2,6.31,5.27,6.22,5.34C6.1,5.43,6,5.53,5.91,5.65C5.87,5.71,5.83,5.77,5.75,5.68
		C5.74,5.65,5.73,5.61,5.68,5.61c0,0.03,0.03,0.04,0.04,0.07c0.03,0.11-0.02,0.2-0.05,0.3c-0.04,0.13-0.1,0.16-0.21,0.06
		C5.44,5.99,5.43,5.94,5.45,5.88c0.02-0.07,0.13-0.14,0.01-0.21c-0.04-0.03-0.08-0.06-0.11-0.1C5.32,5.52,5.26,5.49,5.24,5.42
		c0.01-0.09,0.01-0.18,0.04-0.27C5.3,5.13,5.32,5.12,5.34,5.11C5.43,5.1,5.44,5.05,5.39,4.99c-0.05-0.04-0.06,0.05-0.1,0.03
		C5.24,5.01,5.2,4.98,5.16,4.95C5.15,4.93,5.14,4.9,5.12,4.9c-0.03,0.01,0.01,0.04,0,0.06C4.95,5.03,4.8,5.12,4.63,5.19
		C4.44,5.27,4.38,5.22,4.37,5.02c0-0.06,0-0.12-0.05-0.15c-0.14-0.1-0.19-0.26-0.28-0.4C3.85,4.43,3.81,4.38,3.87,4.21
		c0.07-0.19,0.15-0.38,0.17-0.59c0.08,0.01,0.09,0.05,0.08,0.09C4.1,3.57,4.12,3.4,3.91,3.34C3.88,3.33,3.86,3.3,3.85,3.27
		C3.87,3.1,3.78,2.95,3.79,2.78c-0.03-0.06-0.05-0.13-0.02-0.2l0,0c0.06-0.1,0.03-0.23,0.13-0.3c0.03,0.02,0.04,0.05,0.05,0.08
		c0-0.03-0.02-0.05-0.04-0.07C3.9,2.25,3.9,2.23,3.92,2.21c0.01-0.01,0.02-0.03,0.03-0.04C4.05,2.15,4.08,2,4.2,2.05
		c0.04,0.12,0.01,0.23-0.04,0.34C4.15,2.41,4.12,2.4,4.1,2.41c0,0,0,0.01,0.01,0.01c0.03,0.01,0.04-0.01,0.06-0.03
		C4.18,2.35,4.2,2.31,4.25,2.3c0.1-0.02,0.06-0.07,0.03-0.12C4.24,2.15,4.24,2.1,4.21,2.06c0.01-0.05,0.03-0.1,0.04-0.15l0,0
		c0.09-0.03,0.16-0.1,0.26-0.12c0.3-0.15,0.61-0.22,0.94-0.15c0.15,0.03,0.3,0.05,0.44,0.13C5.98,1.81,6.07,1.8,6.1,1.65
		C6.12,1.53,6.22,1.46,6.32,1.4c0.16,0.01,0.19-0.19,0.33-0.2c0.11-0.07,0.22-0.05,0.34-0.02c0.24,0.05,0.44,0.16,0.61,0.34
		c0.15,0.25,0.13,0.52,0.12,0.79C7.7,2.62,7.67,2.94,7.7,3.26C7.68,3.32,7.69,3.41,7.59,3.39C7.52,3.38,7.42,3.42,7.38,3.32
		C7.35,3.26,7.35,3.2,7.3,3.16c0.07,0.23,0.34,0.31,0.38,0.56c0.04,0,0.05-0.05,0.03-0.03C7.71,3.7,7.71,3.7,7.7,3.7
		C7.61,3.68,7.6,3.62,7.62,3.55c0.01-0.08,0.03-0.16,0.07-0.23c0.08,0.08,0.07,0.21,0.15,0.3l0,0C7.86,3.7,7.9,3.78,7.95,3.84
		c0.02,0.02,0.04,0.03,0.06,0.05C8.03,3.93,8.1,3.96,8.08,4.03C8.07,4.06,8.03,4.05,8,4.04c-0.01,0-0.02,0-0.03-0.01
		c-0.04-0.03-0.1-0.05-0.15-0.07l0,0C7.76,3.9,7.68,3.86,7.6,3.81z"/>
	<path class="st1" d="M12.26,2.65c0.18,0,0.28,0.14,0.39,0.25c0.1,0.1,0.19,0.2,0.24,0.34C13,3.47,13.1,3.7,13.19,3.95
		c0.07,0.19-0.04,0.39-0.22,0.43c-0.04-0.09,0.03-0.18-0.01-0.27c0.05,0.1-0.06,0.2-0.01,0.3c-0.03,0.08-0.01,0.18-0.1,0.23
		c-0.02,0.03-0.11-0.1-0.08,0.04c0,0.04-0.01,0.08-0.03,0.12c-0.14,0.19-0.31,0.25-0.51,0.17c0.01,0.07,0.02,0.13,0.02,0.2
		c0.01,0.1-0.03,0.2-0.02,0.3c-0.01-0.11,0.03-0.21,0.12-0.28c0.07-0.02,0.1,0.02,0.13,0.08c0.01,0.15-0.05,0.28-0.07,0.42
		c-0.02,0.03-0.04,0.06-0.05,0.1c-0.02,0.1-0.07,0.15-0.15,0.06c-0.09-0.09-0.18-0.03-0.26,0c-0.02,0-0.04-0.01-0.05,0
		c0.01,0.01,0.03,0.01,0.05,0.01c0.02,0.01,0.04,0.03,0.02,0.06c-0.09,0.11-0.19,0.22-0.35,0.21c-0.08-0.01-0.12,0.03-0.17,0.08
		c-0.14,0.15-0.24,0.15-0.4,0.02c-0.07-0.06-0.13-0.12-0.19-0.18c-0.28-0.26-0.33-0.27-0.67-0.1c-0.08,0.02-0.11,0.09-0.18,0.12
		c-0.03,0-0.07-0.03-0.1,0.01c-0.04,0.05,0.01,0.07,0.03,0.1c0,0.09-0.06,0.1-0.13,0.07C9.74,6.22,9.72,6.19,9.71,6.16
		c-0.09-0.22-0.3-0.34-0.45-0.5C9.15,5.54,8.98,5.46,8.84,5.34c-0.11-0.09-0.2-0.2-0.29-0.31C8.49,4.96,8.51,4.89,8.59,4.87
		c0.17-0.05,0.32-0.15,0.51-0.14c0.02,0.03,0.03,0.06,0.03,0.1c0.06-0.04,0-0.07,0-0.1c0.03-0.09,0.16-0.06,0.19-0.15
		c0.28-0.15,0.52-0.35,0.7-0.62c0.06-0.08,0.09-0.17,0.09-0.27c0.02-0.26,0.08-0.5,0.24-0.7c0.04-0.04,0.07-0.09,0.12-0.12
		c0.05-0.05,0.11-0.08,0.15-0.13c0.03-0.03,0.07-0.05,0.1-0.08c0.06-0.02,0.11-0.08,0.18-0.05c0.05,0.06,0.13,0.03,0.19,0.04
		c-0.06-0.02-0.13,0.03-0.18-0.04c0.14-0.09,0.28-0.15,0.45-0.15c0.03,0,0.06-0.01,0.09-0.02c0.06,0,0.12,0,0.19,0
		c0.14,0.02,0.27,0.03,0.4,0.07l0,0c0.05,0.08,0.15,0.06,0.22,0.11C12.26,2.63,12.27,2.64,12.26,2.65c-0.06,0.08-0.2,0.04-0.24,0.18
		c0.13-0.02,0.24-0.19,0.35-0.01C12.37,2.73,12.22,2.77,12.26,2.65z"/>
	<path class="st2" d="M8.42,5.37c0.05,0.05,0.1,0.1,0.15,0.14c0.1,0.15,0.24,0.25,0.41,0.3C9.13,5.9,9.25,6,9.35,6.13
		c0.1,0.13,0.08,0.26,0,0.38c0.16-0.09,0.29-0.02,0.41,0.25c0.14,0.3,0.09,0.62,0.03,0.93C9.7,8.06,9.53,8.42,9.36,8.78
		c-0.05,0.1-0.12,0.11-0.2,0.09C8.51,8.69,8,8.31,7.86,7.6C7.79,7.19,7.84,6.8,7.98,6.41c0.08-0.14,0.09-0.31,0.11-0.46
		c0.01-0.2,0.08-0.4,0.06-0.6C8.14,5.29,8.18,5.24,8.23,5.23C8.3,5.2,8.31,5.27,8.33,5.31C8.35,5.34,8.39,5.35,8.42,5.37z"/>
	<path class="st3" d="M7.08,5.15C7.11,5.13,7.14,5.1,7.19,5.11C7.38,5.08,7.56,5.01,7.76,5C7.85,5,7.91,5.01,7.94,5.11
		C7.97,5.7,7.85,6.25,7.55,6.76C7.42,6.97,7.25,7.14,7.01,7.23C6.92,7.27,6.83,7.31,6.72,7.27C6.66,7.25,6.61,7.29,6.55,7.32
		C6.4,7.38,6.24,7.45,6.07,7.36C6.04,7.34,6.03,7.37,6.01,7.37c-0.2,0.02-0.3-0.07-0.26-0.27c0.02-0.09,0.02-0.16-0.01-0.25
		c0.08-0.72,0.42-1.27,1.08-1.6C6.92,5.26,7,5.21,7.08,5.15z"/>
	<path class="st4" d="M15.31,8.65c-0.13,0.47-0.38,0.87-0.7,1.23c-0.53,0.61-1.09,1.2-1.58,1.85c-0.15,0.2-0.29,0.41-0.44,0.63
		c-0.07-0.17-0.03-0.33-0.04-0.49c-0.06-0.63,0.18-1.16,0.61-1.61c0.36-0.38,0.75-0.72,1.18-1.02c0.27-0.19,0.51-0.41,0.75-0.63
		c0.03-0.02,0.05,0,0.07,0.02c0.05-0.02,0-0.06,0.02-0.09c0-0.02,0.01-0.03,0.01-0.05c0.01-0.01,0.02-0.02,0.03-0.04
		C15.39,8.45,15.3,8.57,15.31,8.65z"/>
	<path class="st3" d="M6.45,10.02c-0.02,0.03-0.03,0.07-0.05,0.1c-0.07,0.13-0.12,0.1-0.18-0.01c-0.38-0.6-0.34-1.45,0.08-2.05
		c0.16-0.23,0.37-0.4,0.59-0.56C7.19,7.32,7.45,7.1,7.7,6.79C7.68,7.12,7.59,7.38,7.53,7.64c-0.2,0.83-0.53,1.59-1,2.3
		C6.5,9.97,6.47,10,6.45,10.02c-0.02-0.01-0.04-0.04-0.06-0.01c-0.03,0.03,0.01,0,0.01,0.01C6.42,10.01,6.44,10.01,6.45,10.02z"/>
	<path class="st3" d="M4.96,10.37c0-0.39,0-0.39,0.38-0.26c0.61,0.2,1.01,0.6,1.15,1.24c0.05,0.23,0.11,0.47,0.17,0.7
		c0.03,0.13,0,0.21-0.15,0.21c-0.02,0-0.04,0-0.05,0.01C6.09,12.45,5.85,12.29,5.61,12C5.22,11.52,4.96,11,4.96,10.37z"/>
	<path class="st2" d="M11.11,9.76c0.07,0.15,0.14,0.3,0.21,0.45c0.1,0.2,0.25,0.35,0.43,0.48c0.39,0.28,0.65,0.64,0.62,1.15
		c0.01,0.1,0,0.19,0.01,0.29c0.01,0.08,0,0.17-0.13,0.13l0,0c-0.03-0.05-0.06-0.09-0.11-0.11l0,0c-0.04-0.06-0.08-0.12-0.16-0.15
		c-0.44-0.42-0.86-0.87-1.22-1.37c-0.27-0.39-0.33-0.8-0.16-1.24c0.05-0.07,0.08-0.14,0.08-0.22l0,0c0.05-0.06,0.09-0.12,0.18-0.09
		c0.1,0.03,0.06,0.11,0.07,0.17C10.99,9.42,11.02,9.6,11.11,9.76z"/>
	<path class="st3" d="M8.04,11.55c-0.33-0.36-0.36-0.8-0.38-1.26c0-0.09,0.01-0.18,0.02-0.28C7.74,9.9,7.71,9.77,7.75,9.65l0,0
		c0.09-0.36,0.14-0.73,0.14-1.1c0-0.06-0.02-0.13,0.06-0.16C8,8.37,8.03,8.43,8.07,8.47c0.07,0.06,0.12,0.14,0.21,0.17
		c0.17,0.12,0.34,0.24,0.54,0.32c0.06,0.02,0.1,0.07,0.05,0.13C8.76,9.22,8.74,9.42,8.55,9.5C8.44,9.54,8.49,9.65,8.5,9.73
		c0.02,0.16,0.1,0.32-0.12,0.42c-0.08,0.04-0.02,0.17-0.03,0.26c0,0.11,0.04,0.22-0.11,0.28c-0.07,0.03-0.02,0.09,0,0.13
		c0.18,0.27,0.2,0.58,0.18,0.89c-0.01,0.07,0.04,0.17-0.04,0.2c-0.07,0.02-0.12-0.07-0.16-0.13c0.02-0.05,0.1-0.05,0.1-0.11
		c-0.03,0.07-0.07,0.04-0.11,0.01C8.21,11.56,8.11,11.58,8.04,11.55z"/>
	<path class="st0" d="M6.75,10.06c0.1-0.15,0.19-0.3,0.29-0.44C7.05,9.6,7.07,9.6,7.08,9.6C7.1,9.61,7.1,9.64,7.12,9.65
		c0-0.03-0.03-0.06-0.03-0.1c0.1-0.24,0.25-0.47,0.32-0.72l0,0c0.03-0.05,0.04-0.11,0.08-0.15C7.56,8.52,7.6,8.36,7.7,8.2
		c0.03,0.36-0.11,0.7-0.15,1.05c-0.04,0.36-0.09,0.72-0.12,1.08c-0.03,0.1-0.02,0.2-0.01,0.3c0.04,0.15,0.05,0.32,0.09,0.47
		c0.03,0.1,0.08,0.19,0.11,0.28c0.02,0.05-0.13,0.18,0.07,0.15c0.1,0.06,0.14,0.17,0.23,0.24c0.06,0.1,0.02,0.15-0.08,0.13
		c-0.15-0.02-0.29-0.06-0.42-0.15c-0.22-0.05-0.35-0.23-0.52-0.35l0,0c-0.21-0.25-0.34-0.54-0.42-0.86
		c-0.04-0.12,0.02-0.2,0.09-0.28C6.63,10.2,6.71,10.14,6.75,10.06z"/>
	<path class="st2" d="M5.91,10.13c-0.24-0.18-0.49-0.26-0.76-0.3C5.06,9.81,4.98,9.8,4.99,9.67c0.03-0.59,0.14-1.16,0.49-1.65
		c0.25-0.35,0.61-0.5,1.06-0.52C5.7,8.23,5.71,9.15,5.91,10.13z"/>
	<path class="st5" d="M2.43,10.54c0.05-0.51,0.23-0.93,0.69-1.21c0.27-0.17,0.44-0.42,0.6-0.74c0.07,0.47-0.02,0.86-0.16,1.25
		c-0.19,0.51-0.48,0.95-0.91,1.28c-0.13,0.11-0.29,0.06-0.37-0.1c-0.01-0.15,0.01-0.3-0.04-0.45c-0.02-0.05-0.05-0.13,0.06-0.14
		c0.04-0.01-0.01-0.03-0.01-0.06c0-0.09-0.05-0.18,0.04-0.25c0.06,0.09,0.02,0.2,0.04,0.3c0.03,0.11,0.04,0.23,0.03,0.34
		C2.4,10.69,2.37,10.61,2.43,10.54z"/>
	<path class="st4" d="M4.77,12.52c0.22,0.08,0.45,0.08,0.68,0.06c0.49-0.03,0.96-0.16,1.44-0.26c0.47-0.11,0.94-0.21,1.43-0.14
		c0.26,0.04,0.5,0.13,0.7,0.29c0,0.04-0.02,0.05-0.04,0.05c-0.96-0.08-1.89,0.12-2.82,0.35c-0.59,0.14-1.19,0.13-1.74-0.2
		c-0.13-0.08-0.26-0.16-0.36-0.29c0.04-0.13,0.13-0.05,0.19-0.03c0.12,0.04,0.24,0.1,0.37,0.09C4.68,12.44,4.74,12.46,4.77,12.52z"
		/>
	<path class="st3" d="M12.29,10.43c-0.57-0.09-1.13-0.66-1.19-1.19c-0.05-0.05,0.02-0.14-0.05-0.19C11.01,9,11.03,8.94,11.02,8.87
		c-0.01-0.13,0.02-0.2,0.18-0.14c0.11,0.04,0.23,0.08,0.35,0.09c0.51,0.22,0.82,0.59,0.89,1.15c0.03,0.11,0.01,0.22,0.02,0.32
		C12.47,10.44,12.42,10.48,12.29,10.43z"/>
	<path class="st5" d="M2.32,10.13c-0.04,0.05,0.01,0.11,0,0.16c-0.07,0.2,0.01,0.4,0,0.59c0,0.05,0.01,0.11-0.05,0.15
		C1.97,10.4,1.61,9.8,1.24,9.22C1.1,8.99,0.98,8.76,0.83,8.56C0.72,8.42,0.79,8.29,0.79,8.15c0-0.08,0.14-0.05,0.24,0.04
		c0.22,0.19,0.43,0.39,0.66,0.57C2.05,9.15,2.25,9.61,2.32,10.13z"/>
	<path class="st2" d="M10.09,7.24c0.11,0.34,0.28,0.66,0.45,0.98c0.31,0.58,0.12,0.85-0.37,1.25C10.1,9.52,10.03,9.5,9.96,9.46
		C9.72,9.31,9.6,9.02,9.67,8.74c0.03-0.12,0.06-0.24,0.12-0.35c0.18-0.35,0.23-0.73,0.24-1.11C10.04,7.25,10.05,7.21,10.09,7.24z"/>
	<path class="st0" d="M1.5,7.57c-0.28,0.2-0.55,0.18-0.83-0.03C0.65,7.5,0.59,7.47,0.58,7.41c-0.1-0.17-0.19-0.34-0.1-0.54
		c0.04-0.1,0.07-0.21,0.16-0.28c0.12-0.1,0.23-0.23,0.42-0.12c0.04,0.02,0.1-0.03,0.16-0.04C1.33,6.4,1.42,6.44,1.47,6.56
		C1.44,6.58,1.41,6.59,1.37,6.6c0.05,0,0.09-0.02,0.13-0.03c0.03-0.01,0.05,0,0.08,0C1.6,6.58,1.62,6.6,1.63,6.62
		C1.85,7.01,1.81,7.23,1.5,7.57z"/>
	<path class="st0" d="M14.68,8.58C14.23,8.68,13.85,8.5,13.7,8.1c-0.14-0.39,0.03-0.8,0.41-0.98c0,0.01,0.01,0.01,0.01,0.02
		c0,0.02-0.01,0.06,0.02,0.06c0.04,0.01,0.04-0.04,0.07-0.06c0.03-0.03,0.06-0.04,0.09-0.03c0.19,0.08,0.19,0.09,0.04,0.22
		c0.22,0.09,0.2,0.33,0.32,0.49c0.04,0.06-0.01,0.14-0.06,0.2c-0.05,0.05-0.08,0.1-0.02,0.16c0.03,0.07,0.04,0.16,0.13,0.2
		c0.12,0.05,0.15-0.06,0.2-0.13c0.05-0.07-0.04-0.07-0.06-0.11c0.01-0.08,0.17-0.1,0.11-0.22c0.03-0.04,0.07-0.05,0.12-0.06
		c0.04,0,0.07,0.02,0.09,0.05c0.05,0.06,0.04,0.13,0,0.2C15.1,8.35,14.91,8.48,14.68,8.58z"/>
	<path class="st2" d="M10.43,6.53c0.14,0.19,0.32,0.34,0.49,0.5c0.37,0.36,0.68,0.75,0.79,1.27c0.03,0.13,0.01,0.26,0.02,0.42
		c-0.25-0.24-0.48-0.47-0.71-0.69c0-0.04,0.05-0.1,0-0.12c-0.15-0.06-0.19-0.25-0.38-0.26c-0.08,0-0.11-0.08-0.1-0.15
		c0-0.1-0.03-0.18-0.1-0.25c-0.07-0.07-0.08-0.17-0.1-0.25c-0.02-0.07-0.04-0.15-0.1-0.2c0-0.08-0.01-0.16,0.02-0.24
		c0.03-0.06-0.03-0.16,0.06-0.17C10.38,6.37,10.38,6.48,10.43,6.53z"/>
	<path class="st6" d="M8.64,10.39c0.04-0.13,0.02-0.27,0.05-0.4c0.07-0.29,0.12-0.61,0.36-0.83C9.27,8.96,9.43,9,9.52,9.29
		c0.08,0.27-0.03,0.57-0.28,0.69c-0.08,0.04-0.08,0.07-0.06,0.13c0.05,0.28-0.03,0.54-0.13,0.79c-0.02,0.06-0.06,0.11-0.14,0.09
		c-0.08-0.02-0.09-0.14-0.19-0.13c-0.04-0.02-0.09-0.06-0.07-0.1C8.71,10.63,8.66,10.51,8.64,10.39z"/>
	<path class="st6" d="M4.33,6.82C4.24,6.93,4.13,7,4.01,7.08C3.77,7.23,3.55,7.42,3.36,7.63C3.31,7.61,3.3,7.55,3.3,7.5
		c-0.1,0.07-0.08-0.04-0.1-0.07C3.2,7.36,3.18,7.29,3.21,7.23C3.29,6.71,3.63,6.34,4.06,6.3c0.11-0.03,0.23-0.05,0.33-0.11
		C4.44,6.15,4.5,6.15,4.55,6.11l0,0c0.05-0.02,0.1-0.04,0.15-0.08C4.79,5.97,4.84,6,4.82,6.12l0,0C4.76,6.23,4.7,6.34,4.64,6.45
		c-0.03,0.03-0.05,0.07-0.1,0.08c-0.02,0-0.03-0.01-0.04-0.02C4.48,6.49,4.51,6.46,4.48,6.44C4.48,6.46,4.47,6.48,4.46,6.49
		C4.45,6.62,4.28,6.67,4.33,6.82z"/>
	<path class="st2" d="M3.74,8.13C3.59,8.59,3.4,9.02,2.93,9.26C2.87,9.29,2.8,9.36,2.73,9.32C2.66,9.28,2.69,9.18,2.69,9.11
		c0.01-0.38,0.11-0.72,0.37-1c0.1-0.1,0.2-0.2,0.36-0.22c0.06-0.01,0.12,0,0.17-0.04c0.04-0.03,0.12-0.05,0.17,0.01
		c0.04,0.05,0.03,0.11,0,0.16C3.74,8.06,3.75,8.1,3.74,8.13z"/>
	<path class="st7" d="M8.99,12.11c0.08-0.31,0.06-0.62,0.03-0.93c-0.01-0.06,0.01-0.11,0.05-0.15c0.19-0.19,0.25-0.42,0.24-0.68
		c0-0.13,0.03-0.24,0.13-0.33C9.57,9.9,9.64,9.76,9.67,9.6c0.01-0.04,0-0.12,0.06-0.12c0.07,0,0.08,0.08,0.08,0.13
		c-0.01,0.21,0.02,0.43-0.17,0.58c-0.06,0.05-0.07,0.11-0.06,0.18c0.03,0.34-0.06,0.65-0.31,0.9c-0.06,0.06-0.04,0.12-0.04,0.19
		c0.01,0.24,0.04,0.48-0.13,0.69C9.05,12.17,9.01,12.17,8.99,12.11z"/>
	<path class="st8" d="M8.64,10.39c0.02,0.11,0.16,0.21,0.05,0.35c-0.03,0.03,0.03,0.09,0.08,0.1c0.12,0.04,0.06,0.16,0.1,0.23
		c0.03,0.12,0.05,0.25,0.08,0.37c0.02,0.14,0.02,0.27,0,0.41c0,0.05,0,0.1-0.01,0.15c-0.05,0.07,0.04,0.19-0.07,0.24
		c-0.19-0.26-0.33-0.53-0.29-0.87c0.02-0.15-0.04-0.28-0.11-0.4c-0.06-0.11-0.08-0.21,0.02-0.3c0.05,0.03,0.08,0,0.14-0.03
		c-0.05,0.03-0.09,0.07-0.14,0.04C8.52,10.55,8.58,10.47,8.64,10.39z"/>
	<path class="st9" d="M3.99,11.8c0.15-0.4,0.22-0.82,0.26-1.25c0.04-0.41-0.03-0.8-0.2-1.18C3.91,9.06,3.79,8.73,3.87,8.36
		c0.05-0.25,0.19-0.42,0.41-0.54c0.34-0.17,0.7-0.19,1.07-0.2c0.06,0,0.14,0.01,0.06,0.1c-0.25,0.3-0.42,0.64-0.56,1
		c-0.02,0.01-0.03,0.01-0.05,0C4.79,8.53,4.87,8.36,4.96,8.2C5.03,8.05,5.14,7.93,5.2,7.77c-0.09-0.03-0.18,0.01-0.26,0
		c-0.09,0-0.19-0.01-0.28,0.03C4.51,7.87,4.35,7.94,4.2,8.02C4.09,8.08,4.05,8.17,4.01,8.28C3.91,8.63,4,8.95,4.14,9.27
		c0.21,0.51,0.32,1.02,0.19,1.57c-0.04,0.11-0.01,0.23-0.03,0.35c0,0.08-0.06,0.13-0.07,0.21c-0.03,0.08,0,0.18-0.05,0.25
		c-0.08,0.06-0.05,0.21-0.19,0.23C3.97,11.86,3.97,11.83,3.99,11.8z"/>
	<path class="st10" d="M5.48,6.04c0.09,0.03,0.16,0.04,0.16-0.1c0-0.09,0.04-0.18,0.07-0.27c0.02-0.02,0.05-0.02,0.07,0
		c0.04,0.04,0.06,0.02,0.08-0.02c0.12-0.18,0.29-0.31,0.47-0.47C6.28,5.14,6.22,5.1,6.17,5.05C6.24,4.99,6.26,5.07,6.3,5.07
		c0.01-0.01,0.02-0.01,0.04,0c0.02,0.04,0.05,0.07,0.07,0.11c0.02,0.04-0.02,0.05-0.04,0.08c-0.31,0.21-0.53,0.5-0.71,0.83
		c-0.1,0.18-0.24,0.34-0.43,0.44c-0.02,0.01-0.03,0.01-0.05,0C5.15,6.51,5.19,6.42,5.1,6.45c-0.05,0.01-0.1-0.02-0.14-0.06
		C4.94,6.37,4.94,6.35,4.94,6.33c0.1-0.28,0.23-0.55,0.27-0.85c0-0.02,0.02-0.03,0.04-0.04c0.07,0,0.11,0.04,0.11,0.11
		c0,0.01,0,0.02,0,0.03c0.01,0.09,0.01,0.18-0.03,0.27C5.3,5.95,5.3,6.04,5.36,6.13C5.47,6.19,5.44,6.07,5.48,6.04z"/>
	<path class="st11" d="M4.59,6.97c0.25-0.15,0.54-0.2,0.82-0.28C5.5,6.66,5.53,6.7,5.51,6.8C5.47,6.94,5.45,7.09,5.44,7.23
		c0,0.24,0,0.24-0.26,0.24c-0.06,0-0.11,0-0.17,0C4.98,7.34,4.98,7.33,5.16,7.27c0.02-0.01,0.05,0,0.08-0.02
		c-0.02,0-0.04,0-0.05,0.01c-0.05,0.01-0.1,0.03-0.15,0.03c-0.1-0.03-0.18-0.08-0.2-0.19C4.82,7.04,4.79,7,4.73,7.01
		c-0.04,0-0.09,0-0.12-0.02C4.6,6.98,4.59,6.98,4.59,6.97z"/>
	<path class="st7" d="M1.68,8.76C1.58,8.83,1.54,8.72,1.5,8.67C1.37,8.54,1.28,8.36,1.06,8.35C1.04,8.35,1.01,8.33,1,8.29
		C0.97,8.13,0.96,8.13,0.8,8.16c0.03,0.06,0.09,0.11,0.02,0.19c-0.07,0.08,0,0.16,0.05,0.21C1.02,8.72,1.06,8.94,1.2,9.09
		c0.03,0.03,0.02,0.08,0.04,0.12c-0.38-0.5-0.69-1.03-0.85-1.65c0-0.06,0.03-0.06,0.07-0.04c0.18,0.29,0.44,0.5,0.69,0.73
		C1.33,8.42,1.53,8.56,1.68,8.76z"/>
	<path class="st12" d="M7.56,1.5c-0.04-0.01-0.1-0.02-0.12-0.05C7.38,1.31,7.22,1.31,7.1,1.26c-0.15-0.07-0.31-0.1-0.47-0.01
		c-0.14,0-0.2,0.12-0.3,0.19C6.25,1.54,6.07,1.57,6.12,1.78c0.01,0.04-0.18,0.05-0.27,0.01C5.4,1.58,4.96,1.6,4.51,1.8
		C4.5,1.79,4.5,1.78,4.5,1.77c0-0.01,0.01-0.02,0.01-0.02C4.94,1.52,5.39,1.52,5.83,1.7c0.15,0.06,0.19,0.03,0.26-0.1
		c0.24-0.51,0.98-0.63,1.37-0.24C7.5,1.38,7.53,1.42,7.57,1.46l0,0c0.01,0.01,0.01,0.02,0.01,0.03C7.57,1.5,7.57,1.5,7.56,1.5z"/>
	<path class="st13" d="M4.63,7.5C4.31,7.56,3.98,7.63,3.65,7.7c0.24-0.34,0.57-0.57,0.94-0.73c0,0,0,0,0,0
		C4.6,7.02,4.58,7.04,4.56,7.07c-0.09,0.08-0.13,0.16,0,0.24c0,0.06-0.05,0.06-0.08,0.08C4.46,7.4,4.42,7.4,4.44,7.43
		c0.01,0.02,0.04,0.01,0.07,0.01C4.56,7.45,4.6,7.45,4.63,7.5z"/>
	<path class="st14" d="M10.25,6.82c0.03,0,0.07-0.1,0.09-0.02c0.05,0.19,0.05,0.38,0.23,0.51c-0.05,0.07,0.08,0.11,0.02,0.18
		c-0.05,0.05,0.04,0.12,0.04,0.12c0.23-0.08,0.24,0.2,0.4,0.25c0.12,0.03,0.1,0.12-0.01,0.17c-0.23-0.15-0.45-0.3-0.62-0.52
		c-0.02-0.04-0.03-0.09-0.08-0.11l0,0C10.26,7.2,10.19,7.02,10.25,6.82z"/>
	<path class="st15" d="M9.31,4.58c0.02,0.14-0.13,0.09-0.18,0.16c-0.01,0.01-0.02,0.01-0.04,0C8.93,4.76,8.78,4.83,8.63,4.88
		C8.55,4.91,8.51,4.96,8.59,5.04c0.1,0.09,0.12,0.28,0.31,0.25C8.94,5.56,9.3,5.5,9.38,5.74C9.4,5.8,9.47,5.93,9.61,5.79
		C9.57,5.96,9.66,6.07,9.75,6.17c0.06,0.07,0.1,0.08,0.12-0.02c0-0.05-0.01-0.11,0.07-0.11c0.05-0.06,0.09-0.14,0.19-0.11
		C10.01,6.05,9.92,6.2,9.83,6.36C9.81,6.34,9.79,6.32,9.78,6.3C9.55,5.96,9.26,5.67,8.91,5.45C8.73,5.34,8.61,5.17,8.48,4.99
		C8.44,4.93,8.41,4.88,8.52,4.85C8.8,4.79,9.05,4.67,9.31,4.58z"/>
	<path class="st16" d="M7.49,11.1c-0.03-0.15-0.08-0.29-0.07-0.45c-0.03-0.1-0.03-0.2,0-0.3c0.02-0.6,0.12-1.19,0.24-1.78
		C7.68,8.46,7.69,8.35,7.7,8.23C7.63,8.4,7.56,8.56,7.49,8.72c-0.02-0.03-0.02-0.05,0-0.08c0.06-0.18,0.12-0.37,0.18-0.55
		c0.16,0.03,0.09,0.15,0.09,0.24C7.69,8.74,7.59,9.14,7.54,9.56c-0.05,0.51-0.15,1.03-0.01,1.54C7.52,11.11,7.51,11.11,7.49,11.1z"
		/>
	<path class="st17" d="M5.26,5.45C5.19,5.75,5.1,6.06,4.96,6.34c-0.03-0.04-0.02-0.08,0-0.12C5.04,5.95,5.17,5.7,5.21,5.41
		c0.02-0.13,0.08-0.3-0.02-0.39c-0.1-0.09-0.24,0.05-0.35,0.09c-0.1,0.04-0.19,0.09-0.29,0.12c-0.14,0.05-0.22,0-0.22-0.15
		c0-0.11,0-0.2-0.13-0.27C4.1,4.76,4.06,4.62,4.07,4.48C4.05,4.47,4.05,4.46,4.05,4.45c0-0.01,0.01-0.01,0.01-0.01
		c0.07,0.17,0.19,0.3,0.3,0.44C4.41,4.92,4.4,4.97,4.4,5.02c0.01,0.17,0.07,0.21,0.23,0.14C4.8,5.09,4.95,5,5.11,4.93
		c0.02-0.02,0.05-0.02,0.07,0C5.22,4.95,5.26,4.98,5.3,5c0.04,0.05,0.04,0.1,0,0.15C5.31,5.25,5.26,5.35,5.26,5.45z"/>
	<path class="st18" d="M12.7,4.78c0.01-0.04,0.02-0.07,0.04-0.11c0.01-0.03,0.03-0.06,0.07-0.04c0.1-0.04,0.06-0.16,0.11-0.22
		c-0.01-0.03,0-0.05,0.04-0.04c0.19-0.11,0.23-0.26,0.18-0.44c-0.06-0.24-0.23-0.44-0.25-0.69c0.2,0.29,0.32,0.62,0.37,0.97
		c0.02,0.11-0.01,0.19-0.15,0.2c-0.12,0.01-0.17,0.09-0.2,0.21c-0.04,0.18-0.09,0.37-0.29,0.46C12.57,5,12.61,4.95,12.67,4.91
		C12.73,4.88,12.74,4.84,12.7,4.78z"/>
	<path class="st19" d="M4.81,8.72c0.01,0,0.02,0,0.04,0C4.76,9.1,4.69,9.48,4.69,9.87C4.7,10.51,4.78,11.13,5,11.73
		c-0.02,0.01-0.04,0.01-0.06,0.01c-0.03-0.02-0.05-0.04-0.07-0.07c-0.15-0.38-0.2-0.77-0.26-1.17C4.54,9.99,4.59,9.49,4.68,8.99
		C4.7,8.89,4.71,8.78,4.81,8.72z"/>
	<path class="st2" d="M5.74,6.86C5.82,6.93,5.9,6.98,5.79,7.11C5.71,7.22,5.84,7.36,6,7.34c0.04-0.01,0.09-0.03,0.12-0.03
		C6.4,7.34,6.4,7.35,6.59,7.23c0.04-0.02,0.09-0.05,0.12-0.03c0.1,0.09,0.2,0.03,0.3,0.03C6.64,7.46,6.23,7.45,5.82,7.39
		C5.73,7.38,5.7,7.34,5.71,7.24C5.72,7.12,5.69,6.98,5.74,6.86z"/>
	<path class="st20" d="M6.64,3.88c0.02-0.13,0.09-0.24,0.14-0.36c0.15-0.32,0.12-0.63-0.1-0.91C6.62,2.58,6.55,2.55,6.6,2.47
		C6.52,2.34,6.4,2.24,6.3,2.13c-0.02-0.04,0.01-0.07,0-0.11c0-0.03,0.01-0.06,0.04-0.07c0.14-0.01,0.28-0.04,0.37,0.11
		C6.6,2.06,6.45,2,6.4,2.1C6.35,2.18,6.51,2.24,6.56,2.31C7.03,2.93,7,3.22,6.67,3.88C6.66,3.9,6.65,3.9,6.64,3.88z"/>
	<path class="st21" d="M6.71,2.06C6.61,1.93,6.45,2.03,6.34,1.95c-0.03-0.06-0.08,0-0.11-0.03c0.03-0.24,0.26-0.33,0.39-0.48
		C6.65,1.39,6.7,1.4,6.73,1.42c0.03,0.02,0.01,0.07-0.02,0.09C6.62,1.58,6.6,1.72,6.48,1.76C6.41,1.79,6.4,1.87,6.49,1.89
		c0.1,0.02,0.2,0.15,0.31,0.01c0.04,0.07-0.02,0.13-0.02,0.2C6.76,2.09,6.73,2.07,6.71,2.06z"/>
	<path class="st22" d="M4.07,4.44c0,0.01,0,0.03,0,0.04c-0.27,0-0.29-0.03-0.22-0.29C3.88,4.1,3.9,4.01,3.94,3.93
		C3.99,3.8,4.05,3.68,3.87,3.58C3.82,3.55,3.8,3.46,3.81,3.4c0.02-0.21-0.04-0.42-0.04-0.63c0.01-0.02,0.03-0.02,0.04,0
		c0,0.18,0.12,0.34,0.07,0.52c0,0.15,0.18,0.19,0.19,0.33C4.05,3.82,3.99,3.99,3.91,4.17C3.85,4.31,3.87,4.45,4.07,4.44z"/>
	<path class="st23" d="M12.7,4.78c0.03,0,0.09-0.01,0.09,0.03c0.01,0.06-0.02,0.12-0.08,0.13C12.63,4.95,12.63,5,12.63,5.07
		c-0.01,0.01-0.02,0.01-0.03,0.01c-0.07,0.04-0.11,0.12-0.16,0.18c-0.04-0.02-0.07-0.05-0.11-0.07c-0.05-0.03-0.1-0.02-0.15-0.04
		c0-0.03,0-0.06,0-0.09c-0.01-0.08,0.03-0.12,0.1-0.09c0.04,0.02,0.05-0.02,0.07-0.04c0.02-0.02,0.03-0.07,0.06-0.04
		C12.59,5.06,12.6,4.81,12.7,4.78z"/>
	<path class="st24" d="M8.42,5.37C8.3,5.43,8.3,5.32,8.27,5.24C8.21,5.28,8.16,5.31,8.16,5.39c0,0.28-0.04,0.56-0.1,0.84
		C8.05,6.29,8.09,6.39,7.98,6.41c0.08-0.46,0.15-0.92,0.2-1.4C8.26,5.13,8.34,5.25,8.42,5.37z"/>
	<path class="st25" d="M7.56,1.5c0-0.01,0-0.03,0-0.04c0.15,0.15,0.17,0.35,0.17,0.55c0,0.23-0.02,0.47-0.03,0.7
		c-0.02,0.31,0,0.62,0.12,0.91c-0.11-0.07-0.09-0.2-0.16-0.29l0,0c-0.06-0.45,0.02-0.91,0-1.36C7.67,1.8,7.65,1.64,7.56,1.5z"/>
	<path class="st26" d="M15.16,8.09c0.02-0.06,0.02-0.12,0-0.18c0-0.01,0-0.02,0-0.02c0.02-0.1,0.01-0.19-0.05-0.27
		c-0.08-0.22-0.22-0.37-0.45-0.45c-0.07-0.03-0.13-0.02-0.2-0.02c-0.05-0.02-0.1,0.02-0.15-0.01c-0.03,0-0.06,0.01-0.07,0.04
		c-0.05,0.04-0.08,0.02-0.11-0.03c0,0,0-0.02,0-0.02c0.28-0.15,0.62-0.11,0.86,0.1c0.25,0.22,0.34,0.56,0.22,0.87
		C15.18,8.1,15.17,8.1,15.16,8.09z"/>
	<path class="st27" d="M9.76,6.75C9.69,6.67,9.62,6.59,9.55,6.52C9.47,6.46,9.4,6.47,9.35,6.57C9.34,6.61,9.32,6.64,9.27,6.62
		C9.23,6.6,9.24,6.55,9.27,6.53c0.15-0.11,0.1-0.26,0.08-0.4C9.54,6.3,9.71,6.48,9.76,6.75z"/>
	<path class="st28" d="M1.58,6.6c-0.03,0-0.05,0-0.08,0C1.49,6.59,1.46,6.59,1.46,6.56C1.4,6.47,1.32,6.44,1.21,6.48
		C1.15,6.49,1.09,6.51,1,6.47C0.88,6.42,0.75,6.52,0.65,6.6c-0.02-0.01-0.02-0.03,0-0.04c0.24-0.24,0.53-0.28,0.82-0.1
		C1.51,6.49,1.58,6.51,1.58,6.6z"/>
	<path class="st24" d="M11.11,9.76c-0.14-0.14-0.14-0.33-0.2-0.5c-0.06-0.19-0.05-0.2-0.22-0.1c0.03-0.13,0.11-0.24,0.2-0.4
		C10.94,9.13,11.02,9.45,11.11,9.76z"/>
	<path class="st29" d="M8.29,8.64C8.2,8.66,8.17,8.59,8.12,8.55C8.06,8.5,8.02,8.39,7.94,8.43C7.86,8.46,7.9,8.57,7.9,8.65
		c0,0.31-0.05,0.62-0.11,0.93C7.78,9.61,7.78,9.63,7.75,9.65c0.06-0.39,0.12-0.79,0.12-1.19c0-0.05,0-0.11,0.06-0.12
		C7.97,8.32,8,8.37,8.03,8.4C8.12,8.48,8.2,8.56,8.29,8.64z"/>
	<path class="st30" d="M1.5,7.57C1.59,7.4,1.74,7.25,1.73,7.04C1.73,6.89,1.66,6.77,1.61,6.64c0.01-0.02,0.03-0.03,0.05-0.01
		C1.9,6.95,1.83,7.35,1.5,7.57z"/>
	<path class="st31" d="M7.42,11.74c0.14,0.06,0.27,0.12,0.43,0.13c0.12,0.01,0.05-0.06,0.06-0.1c0.01-0.02,0.03-0.02,0.04,0
		c0.06,0.06,0.2,0.1,0.16,0.19c-0.04,0.09-0.17,0.01-0.25-0.01c-0.16-0.03-0.31-0.07-0.44-0.17C7.4,11.76,7.4,11.75,7.42,11.74z"/>
	<path class="st32" d="M6.38,5.26C6.39,5.24,6.4,5.21,6.41,5.19c0.02,0,0.04,0,0.05-0.01c0.27-0.11,0.27-0.11,0.14-0.37
		C6.55,4.7,6.52,4.6,6.53,4.48C6.59,4.64,6.65,4.8,6.76,4.93c0.07,0.09,0.08,0.18-0.07,0.21C6.58,5.17,6.48,5.22,6.38,5.26z"/>
	<path class="st33" d="M10.25,6.82c-0.03,0.19,0.06,0.37,0.07,0.56c-0.18-0.26-0.1-0.56-0.09-0.84c0-0.08-0.02-0.22,0.07-0.23
		c0.09-0.01,0.11,0.13,0.14,0.21c-0.07-0.01-0.06-0.1-0.14-0.12C10.29,6.55,10.23,6.68,10.25,6.82z"/>
	<path class="st34" d="M3.74,8.13c-0.03-0.14-0.09-0.19-0.24-0.2c-0.02,0-0.04-0.02-0.07-0.03c0.12-0.07,0.26-0.09,0.4-0.11
		c0.04-0.01,0.09-0.02,0.11,0.03C3.96,7.86,3.92,7.88,3.9,7.91C3.84,7.98,3.79,8.06,3.74,8.13z"/>
	<path class="st35" d="M6.49,10.54c0.1,0.16,0.1,0.36,0.21,0.52c0.04,0.06,0.06,0.13,0.12,0.17c0.07,0.04,0.08,0.1,0.07,0.17
		c-0.24-0.22-0.36-0.5-0.41-0.81C6.47,10.57,6.47,10.55,6.49,10.54z"/>
	<path class="st36" d="M4.96,6.22c0,0.04,0,0.08,0,0.12c0,0.01,0,0.02,0,0.04c0,0.05-0.04,0.09-0.06,0.13
		C4.89,6.54,4.87,6.56,4.87,6.6c0.1,0,0.18-0.07,0.27-0.09c0.02,0,0.03,0,0.05,0.01c0.02,0,0.03,0,0.05,0.01
		c-0.15,0.13-0.32,0.2-0.55,0.22C4.78,6.56,4.87,6.39,4.96,6.22z"/>
	<path class="st37" d="M7.94,11.77c-0.01,0-0.03,0-0.04,0c-0.11-0.04-0.15-0.15-0.22-0.22c-0.07-0.03-0.09-0.08-0.07-0.15
		c-0.05-0.09-0.09-0.19-0.11-0.3c0.02,0,0.03,0,0.05,0C7.63,11.35,7.76,11.57,7.94,11.77z"/>
	<path class="st38" d="M4.03,12.11C4,12.08,3.98,12.04,3.95,12c0.01-0.01,0.01-0.01,0.02-0.02c0.12-0.01,0.17,0.09,0.26,0.13
		c0.03,0.02,0.06,0.04,0.09,0.05c0.13,0.08,0.27,0.13,0.42,0.17c0.03,0.01,0.07,0.03,0.09,0.07c0,0.02,0,0.04-0.02,0.05
		c-0.1,0.03-0.2-0.02-0.3-0.04c-0.11-0.05-0.23-0.09-0.33-0.16C4.11,12.22,4.07,12.17,4.03,12.11z"/>
	<path class="st39" d="M7.08,9.61c-0.01,0-0.03,0-0.04,0c0.13-0.26,0.25-0.52,0.38-0.78c0.01,0.22-0.15,0.39-0.22,0.58
		c-0.02,0.06-0.07,0.1-0.07,0.17C7.11,9.59,7.1,9.61,7.08,9.61z"/>
	<path class="st40" d="M4.63,12.48c-0.13,0.01-0.24-0.04-0.35-0.08c-0.07-0.02-0.13-0.1-0.21-0.03c-0.04-0.04-0.09-0.08-0.12-0.13
		c-0.03-0.06,0.02-0.05,0.05-0.06c0.05,0.02,0.12,0.02,0.16,0.06c0.11,0.05,0.21,0.13,0.33,0.15C4.53,12.43,4.62,12.39,4.63,12.48z"
		/>
	<path class="st41" d="M15.31,8.65c-0.04-0.06,0.02-0.17-0.09-0.19c0.05-0.1,0.11-0.19,0.16-0.29c0.07,0,0.05,0.04,0.04,0.07
		C15.41,8.38,15.38,8.52,15.31,8.65z"/>
	<path class="st42" d="M11.88,5.82c0.11-0.07,0.21-0.14,0.32-0.01c0.04,0.05,0.08,0.04,0.09-0.03c0.01-0.05,0.03-0.09,0.07-0.12
		c0.02,0.02,0.02,0.05,0,0.07c-0.04,0.14-0.08,0.25-0.24,0.09c-0.09-0.08-0.14,0.02-0.2,0.06c-0.01-0.01-0.03-0.03-0.04-0.04
		c-0.01-0.01-0.01-0.02-0.01-0.02C11.88,5.82,11.88,5.82,11.88,5.82z"/>
	<path class="st43" d="M12.26,12.26c0.09-0.02,0.14-0.11,0.1-0.16c-0.08-0.1,0-0.18,0.01-0.26c0.06,0.1,0.02,0.23,0.06,0.34
		c0.02,0.06,0.05,0.15-0.02,0.18C12.33,12.39,12.29,12.31,12.26,12.26z"/>
	<path class="st44" d="M5,7.45c0.04,0,0.07,0,0.11,0c0.16,0,0.35,0.04,0.33-0.22c0.01,0.05,0.02,0.09,0.03,0.14
		C5.49,7.47,5.49,7.52,5.36,7.5C5.14,7.48,4.92,7.49,4.7,7.49c0.03-0.12,0.13-0.07,0.21-0.08C4.95,7.42,4.97,7.43,5,7.45z"/>
	<path class="st45" d="M4.33,6.82C4.26,6.78,4.18,6.74,4.31,6.66C4.37,6.62,4.4,6.55,4.44,6.49c0.04-0.02,0.05,0.02,0.07,0.04l0,0
		C4.54,6.54,4.57,6.56,4.55,6.6C4.53,6.63,4.51,6.65,4.49,6.68C4.41,6.7,4.37,6.76,4.33,6.82L4.33,6.82z"/>
	<path class="st46" d="M8.98,5.82C8.73,5.8,8.66,5.76,8.57,5.52C8.72,5.61,8.86,5.7,8.98,5.82z"/>
	<path class="st47" d="M7.94,5.11C7.82,4.98,7.68,5.04,7.55,5.05C7.43,5.07,7.31,5.13,7.19,5.11C7.38,5.02,7.59,5,7.8,4.97
		C7.91,4.95,7.96,4.99,7.94,5.11z"/>
	<path class="st48" d="M3.21,7.46c0.11,0.01,0.13,0.09,0.15,0.18C3.33,7.67,3.31,7.71,3.28,7.75C3.21,7.77,3.15,7.78,3.16,7.68
		c0-0.05-0.01-0.11,0.01-0.16c0-0.01,0-0.02,0-0.03C3.19,7.48,3.19,7.46,3.21,7.46z"/>
	<path class="st49" d="M15.16,8.09c0.01,0,0.03,0,0.04,0c-0.07,0.27-0.26,0.42-0.52,0.49C14.87,8.45,15.07,8.32,15.16,8.09z"/>
	<path class="st50" d="M12.37,5.74c0-0.02,0-0.05,0-0.07c0-0.14,0.05-0.27,0.07-0.41c0.02-0.09,0.06-0.16,0.16-0.18
		c-0.13,0.13-0.13,0.3-0.16,0.47C12.42,5.61,12.42,5.69,12.37,5.74z"/>
	<path class="st51" d="M11.56,8.83c-0.11,0.02-0.22-0.01-0.32-0.06c-0.12-0.06-0.19-0.03-0.22,0.1C10.97,8.7,11,8.66,11.16,8.7
		C11.29,8.73,11.44,8.75,11.56,8.83z"/>
	<path class="st52" d="M0.5,6.86C0.42,7.07,0.52,7.24,0.6,7.42c-0.01,0.02-0.03,0.02-0.04,0c-0.15-0.2-0.18-0.42-0.07-0.64
		C0.52,6.81,0.52,6.83,0.5,6.86z"/>
	<path class="st53" d="M4.81,12.44c0.16-0.07,0.33-0.08,0.49,0.01"/>
	<path class="st54" d="M10.92,2.62c-0.07,0.01-0.13,0.02-0.2,0.03c0.19-0.14,0.41-0.2,0.64-0.22c0.01,0.01,0.02,0.02,0.01,0.03
		c0,0.01-0.01,0.01-0.01,0.01C11.19,2.46,11.06,2.56,10.92,2.62L10.92,2.62z"/>
	<path class="st55" d="M4.82,6.12C4.8,6.04,4.78,5.98,4.69,6.07C4.65,6.11,4.6,6.12,4.55,6.11c0.11-0.08,0.22-0.17,0.35-0.26
		C4.89,5.96,4.88,6.05,4.82,6.12z"/>
	<path class="st56" d="M5.3,12.45c-0.16,0-0.32-0.01-0.49-0.01c0-0.01,0-0.02,0-0.03c0.05-0.06,0.13-0.05,0.2-0.05
		c0.03,0,0.05,0,0.08,0c0.09,0.01,0.17,0.01,0.2-0.09c0.06,0.02,0.11,0.07,0.11,0.13C5.4,12.46,5.34,12.43,5.3,12.45z"/>
	<path class="st57" d="M4.25,1.91c0.11,0.08,0.03,0.11-0.03,0.15l0,0C4.1,2.04,4.06,2.19,3.95,2.17C4.03,2.06,4.12,1.97,4.25,1.91z"
		/>
	<path class="st58" d="M2.43,10.54c0,0.13,0.03,0.26-0.07,0.38c0-0.16,0-0.33,0-0.49C2.4,10.46,2.37,10.52,2.43,10.54z"/>
	<path class="st59" d="M6.49,10.54c0,0.02-0.01,0.03-0.01,0.05c-0.06-0.13-0.05-0.24,0.07-0.34c0.07-0.06,0.13-0.13,0.19-0.19
		c-0.01,0.13-0.13,0.19-0.19,0.28C6.51,10.41,6.48,10.46,6.49,10.54z"/>
	<path class="st35" d="M7.42,11.74c0,0.02,0,0.03,0,0.05c-0.21-0.07-0.38-0.2-0.52-0.38c0.17,0.05,0.25,0.24,0.42,0.29
		C7.35,11.7,7.38,11.72,7.42,11.74z"/>
	<path class="st11" d="M4.92,7.45C4.85,7.47,4.77,7.43,4.7,7.49c-0.02,0-0.04,0-0.07,0.01c-0.05,0-0.1,0-0.16,0
		C4.5,7.36,4.61,7.34,4.71,7.34C4.8,7.33,4.9,7.33,4.92,7.45z"/>
	<path class="st60" d="M11.36,2.47c0-0.01,0-0.03,0-0.04c0.23-0.06,0.46-0.02,0.67,0.08c-0.14-0.01-0.27-0.02-0.41-0.04
		c-0.06-0.03-0.12-0.03-0.19,0C11.41,2.47,11.39,2.47,11.36,2.47z"/>
	<path class="st32" d="M6.64,3.88c0.01,0,0.02,0,0.03,0C6.6,4.08,6.52,4.27,6.53,4.48c-0.01,0-0.03,0-0.04,0
		c-0.03-0.04-0.03-0.07,0-0.11C6.51,4.2,6.55,4.04,6.64,3.88z"/>
	<path class="st61" d="M8.04,11.55c0.11-0.05,0.21-0.08,0.2,0.11c-0.02,0.03-0.05,0.04-0.08,0.04C8.11,11.66,8.06,11.62,8.04,11.55z
		"/>
	<path class="st62" d="M8.16,11.7c0.02-0.03,0.04-0.04,0.08-0.04c0.13,0.05,0.03-0.13,0.17-0.11c-0.07,0.08-0.02,0.21-0.18,0.23
		C8.2,11.75,8.18,11.73,8.16,11.7z"/>
	<path class="st63" d="M12.29,10.43c0.1,0.01,0.16-0.02,0.15-0.14c-0.01-0.1,0-0.21,0-0.31c0.06,0.11,0.02,0.23,0.03,0.34
		C12.49,10.47,12.42,10.51,12.29,10.43z"/>
	<path class="st64" d="M7.08,5.15c-0.06,0.11-0.12,0.2-0.26,0.11C6.89,5.19,6.98,5.15,7.08,5.15z"/>
	<path class="st65" d="M7.75,9.65c-0.03,0.12,0.08,0.27-0.07,0.38C7.67,9.89,7.7,9.77,7.75,9.65z"/>
	<path class="st66" d="M8,4.04c0.15-0.04-0.04-0.1,0.01-0.15c0.09,0.05,0.15,0.12,0.21,0.2C8.13,4.12,8.07,4.08,8,4.04z"/>
	<path class="st55" d="M4.63,6.45c0.04-0.13,0.1-0.24,0.19-0.33C4.79,6.26,4.71,6.38,4.63,6.5C4.61,6.48,4.61,6.47,4.63,6.45z"/>
	<path class="st67" d="M3.17,7.52C3.2,7.6,3.12,7.73,3.28,7.75C3.27,7.8,3.24,7.84,3.2,7.84c-0.05,0-0.05-0.06-0.05-0.1
		C3.14,7.67,3.12,7.59,3.17,7.52z"/>
	<path class="st68" d="M5.29,12.26c0.06,0.2-0.1,0.13-0.18,0.14c-0.02-0.09,0.09-0.1,0.1-0.17c0.01-0.01,0.03-0.02,0.04-0.01
		C5.27,12.23,5.28,12.25,5.29,12.26z"/>
	<path class="st57" d="M4.51,1.75c0,0.02,0,0.03,0,0.05C4.43,1.84,4.36,1.92,4.25,1.91C4.32,1.83,4.41,1.78,4.51,1.75z"/>
	<path class="st69" d="M3.92,2.28c-0.1,0.07-0.07,0.22-0.15,0.3c0-0.14,0.04-0.27,0.15-0.37C3.92,2.23,3.92,2.26,3.92,2.28
		L3.92,2.28z"/>
	<path class="st70" d="M7.76,8.32C7.74,8.24,7.79,8.13,7.67,8.09C7.68,8.06,7.68,8.01,7.7,8.01c0.06-0.03,0.04,0.03,0.06,0.06
		C7.79,8.15,7.81,8.24,7.76,8.32z"/>
	<path class="st71" d="M0.46,7.53c-0.03,0-0.06,0.01-0.07,0.04C0.32,7.5,0.36,7.42,0.34,7.34C0.39,7.4,0.45,7.45,0.46,7.53z"/>
	<path class="st72" d="M4.96,11.74c0.01,0,0.03,0,0.04,0c0.05,0.1,0.1,0.2,0.15,0.29c-0.01,0.01-0.01,0.01-0.02,0.02
		c-0.02,0-0.03,0-0.05-0.01C5.02,11.94,4.94,11.86,4.96,11.74z"/>
	<path class="st73" d="M8.87,12.23c0.07-0.07,0.01-0.17,0.07-0.24c0.02,0.06-0.02,0.13,0.04,0.19c0.03,0,0.06,0.01,0.08,0.04
		C9,12.28,8.93,12.27,8.87,12.23z"/>
	<path class="st60" d="M12.25,2.62c-0.09,0-0.19,0.01-0.22-0.11C12.12,2.53,12.21,2.53,12.25,2.62z"/>
	<path class="st34" d="M4.4,6.19C4.3,6.27,4.19,6.31,4.06,6.3c0.1-0.04,0.2-0.07,0.31-0.11C4.38,6.18,4.39,6.18,4.4,6.19z"/>
	<path class="st74" d="M0.5,6.86c0-0.03,0-0.06,0-0.08c0.02-0.1,0.07-0.17,0.15-0.22c0,0.01,0,0.03,0,0.04
		C0.6,6.69,0.55,6.78,0.5,6.86z"/>
	<path class="st73" d="M8.95,11.44c0.05,0.14,0.05,0.27,0,0.41"/>
	<path class="st75" d="M7.26,3.4c0.1,0.04,0.15,0.13,0.15,0.23C7.33,3.58,7.28,3.5,7.26,3.4z"/>
	<path class="st76" d="M10.62,2.73c0,0.1-0.09,0.11-0.15,0.15c-0.01-0.01-0.02-0.02-0.01-0.02c0-0.01,0.01-0.01,0.01-0.01
		C10.51,2.79,10.54,2.73,10.62,2.73z"/>
	<path class="st25" d="M7.95,3.84C7.87,3.79,7.81,3.72,7.83,3.62C7.91,3.67,7.94,3.75,7.95,3.84z"/>
	<path class="st66" d="M7.6,3.81c0.1,0.02,0.17,0.06,0.22,0.15C7.74,3.93,7.66,3.89,7.6,3.81z"/>
	<path class="st24" d="M10.69,9.17c0.07,0.11-0.02,0.16-0.08,0.22C10.62,9.31,10.63,9.23,10.69,9.17z"/>
	<path class="st77" d="M1.66,6.63c-0.02,0-0.03,0.01-0.05,0.01C1.6,6.63,1.59,6.61,1.58,6.6C1.54,6.55,1.5,6.51,1.46,6.46
		C1.57,6.47,1.62,6.55,1.66,6.63z"/>
	<path class="st72" d="M5.25,12.22c-0.01,0-0.02,0-0.03,0c-0.01,0-0.02,0-0.03-0.01c-0.06-0.04-0.1-0.1-0.05-0.17
		c0,0,0.01-0.01,0.01-0.01C5.21,12.08,5.26,12.14,5.25,12.22z"/>
	<path class="st78" d="M15.42,8.24c-0.01-0.03-0.01-0.06-0.04-0.07c0.01-0.04,0.03-0.08,0.05-0.14C15.47,8.12,15.47,8.18,15.42,8.24
		z"/>
	<path class="st79" d="M4.63,6.45c0,0.02,0,0.03,0,0.05C4.62,6.54,4.59,6.58,4.55,6.6C4.54,6.58,4.53,6.55,4.51,6.53
		C4.55,6.5,4.59,6.48,4.63,6.45z"/>
	<path class="st6" d="M4.33,6.82c0.01-0.09,0.06-0.14,0.16-0.15C4.45,6.74,4.39,6.79,4.33,6.82z"/>
	<path class="st67" d="M3.21,7.46C3.2,7.47,3.19,7.48,3.18,7.49c0-0.09-0.02-0.18,0.04-0.26C3.21,7.31,3.21,7.38,3.21,7.46z"/>
	<path class="st43" d="M11.99,12c0.1,0,0.15,0.05,0.16,0.15C12.08,12.11,12.03,12.06,11.99,12z"/>
	<path class="st38" d="M3.99,11.8c0,0.03,0,0.05,0,0.08c0.03,0.04,0,0.07-0.03,0.1c0,0-0.01,0.01-0.01,0.01
		C3.87,11.92,3.96,11.87,3.99,11.8z"/>
	<path class="st39" d="M7.49,8.64c0,0.03,0,0.05,0,0.08C7.47,8.76,7.46,8.81,7.41,8.83C7.42,8.76,7.44,8.7,7.49,8.64z"/>
	<path class="st80" d="M10.09,7.24c-0.02,0.01-0.04,0.02-0.06,0.04c0-0.04-0.03-0.1,0.02-0.12C10.08,7.15,10.1,7.2,10.09,7.24z"/>
	<path class="st55" d="M4.4,6.19c-0.01,0-0.02,0-0.03,0c0.05-0.05,0.11-0.08,0.18-0.08C4.52,6.17,4.46,6.18,4.4,6.19z"/>
	<path class="st81" d="M10.47,2.84c0,0.01,0,0.02,0,0.04c-0.03,0.05-0.06,0.09-0.12,0.11C10.36,2.92,10.41,2.87,10.47,2.84z"/>
	<path class="st82" d="M9.05,12.22c-0.03,0-0.06,0-0.08-0.04c0-0.02,0.01-0.05,0.01-0.07c0.04,0.01,0.08,0.03,0.12,0.04
		C9.09,12.17,9.07,12.2,9.05,12.22z"/>
	<path class="st69" d="M3.81,2.77c-0.01,0-0.03,0-0.04,0c-0.03-0.06-0.04-0.13,0-0.19C3.77,2.64,3.77,2.71,3.81,2.77z"/>
	<path class="st41" d="M15.16,8.65c-0.02-0.01-0.05-0.02-0.07-0.04c0.03-0.04,0.07-0.08,0.1-0.12c0,0.01,0,0.03,0,0.04
		C15.21,8.58,15.19,8.62,15.16,8.65z"/>
	<path class="st2" d="M10.31,7.38c0.08,0,0.08,0.06,0.08,0.11C10.35,7.47,10.32,7.44,10.31,7.38z"/>
	<path class="st66" d="M7.83,3.96c0.06-0.01,0.12,0.01,0.15,0.07C7.92,4.03,7.87,4,7.83,3.96z"/>
	<path class="st51" d="M11.05,9.06c0.09,0.04,0.04,0.12,0.05,0.19C11.05,9.19,11.07,9.12,11.05,9.06z"/>
	<path class="st43" d="M12.14,12.15c0.07,0,0.11,0.04,0.11,0.11C12.21,12.23,12.17,12.19,12.14,12.15z"/>
	<path class="st83" d="M0.56,7.42c0.02,0,0.03,0,0.05,0C0.63,7.46,0.65,7.5,0.68,7.54C0.61,7.53,0.58,7.48,0.56,7.42z"/>
	<path class="st84" d="M7.57,1.46C7.51,1.45,7.48,1.4,7.45,1.36C7.53,1.35,7.56,1.4,7.57,1.46z"/>
	<path class="st85" d="M7.68,3.33c0,0.06-0.01,0.12,0,0.19c0,0.05-0.12,0.17,0.06,0.11c0,0,0.02,0.03,0.01,0.04
		C7.74,3.69,7.73,3.71,7.71,3.72c-0.03,0.02-0.07,0-0.08-0.02c-0.09-0.23-0.35-0.34-0.4-0.59c0.12,0.03,0.12,0.03,0.15,0.15
		c0.02,0.06,0.04,0.15,0.14,0.07C7.58,3.28,7.63,3.43,7.68,3.33C7.68,3.33,7.68,3.33,7.68,3.33z"/>
	<path class="st86" d="M4.07,3.62C4.01,3.57,3.95,3.52,3.9,3.46C3.85,3.41,3.84,3.35,3.88,3.29c0.27,0.09,0.33,0.21,0.25,0.5
		C4.11,3.73,4.09,3.67,4.07,3.62z"/>
	<path class="st87" d="M5.48,6.04C5.52,6.18,5.44,6.2,5.33,6.19C5.3,5.98,5.36,5.77,5.37,5.56c0,0,0,0,0,0
		c0.04,0.02,0.07,0.05,0.11,0.07c0.05,0.07,0.05,0.15,0,0.22C5.48,5.92,5.48,5.98,5.48,6.04z"/>
	<path class="st88" d="M7.58,2.5c0.11,0.19-0.01,0.38,0,0.57C7.58,2.87,7.58,2.68,7.58,2.5z"/>
	<path class="st89" d="M6.35,4.43c0.01,0.12,0.18,0.21,0.06,0.35C6.3,4.54,6.3,4.54,6.35,4.43z"/>
	<path class="st90" d="M4.25,2.32C4.23,2.35,4.2,2.37,4.18,2.4c-0.01,0.01-0.02,0.01-0.04,0c0.04-0.11-0.02-0.24,0.07-0.33
		c0,0,0,0,0,0c0.05,0.02,0.07,0.06,0.07,0.11C4.3,2.23,4.3,2.28,4.25,2.32z"/>
	<path class="st91" d="M7.26,2.08C7.24,2.23,7.18,2.29,7.1,2.34C7.08,2.35,7.05,2.33,7.05,2.3C7.05,2.18,7.16,2.16,7.26,2.08z"/>
	<path class="st92" d="M6.34,1.43c0.05-0.14,0.14-0.22,0.3-0.19C6.6,1.29,6.53,1.29,6.51,1.36C6.49,1.45,6.41,1.45,6.34,1.43z"/>
	<path class="st87" d="M6.34,5.07c-0.01,0-0.02,0-0.04,0c0-0.01,0-0.03,0.01-0.04c0.07-0.06,0.12-0.15,0.23-0.12
		c0.01,0,0.03,0.04,0.03,0.04C6.5,5.03,6.43,5.08,6.34,5.07z"/>
	<path class="st93" d="M5.3,5.15c0-0.05,0-0.1,0-0.15c0.01-0.02,0.03-0.04,0.04-0.06c0.01-0.03,0-0.07,0.04-0.07
		C5.42,4.88,5.4,4.93,5.41,4.96c0.05,0.07,0.01,0.13-0.04,0.19C5.35,5.15,5.32,5.15,5.3,5.15z"/>
	<path class="st94" d="M5.78,5.67c-0.02,0-0.05,0-0.07,0c-0.06,0-0.12,0-0.11-0.09c0-0.03,0.02-0.05,0.05-0.05
		C5.72,5.55,5.79,5.56,5.78,5.67z"/>
	<path class="st95" d="M6.33,3.94c0.08,0.15,0.01,0.22-0.1,0.33C6.27,4.15,6.3,4.06,6.33,3.94z"/>
	<path class="st96" d="M4.25,2.32c0.01-0.05-0.02-0.11,0.04-0.15c0.1,0.02,0.09,0.09,0.06,0.15C4.33,2.37,4.29,2.36,4.25,2.32z"/>
	<path class="st10" d="M5.48,5.86c0-0.07,0-0.15,0-0.22C5.63,5.71,5.59,5.78,5.48,5.86z"/>
	<path class="st97" d="M4.26,4.5C4.21,4.44,4.21,4.38,4.23,4.32c0,0,0.05,0,0.06,0.02C4.34,4.41,4.28,4.45,4.26,4.5z"/>
	<path class="st98" d="M7.44,1.58c0.07,0.04,0.1,0.08,0.06,0.14C7.49,1.74,7.46,1.75,7.45,1.74C7.39,1.71,7.42,1.65,7.44,1.58z"/>
	<path class="st99" d="M6.3,2.02c0.06,0.04,0.01,0.07,0,0.11C6.29,2.16,6.32,2.22,6.27,2.22c-0.03,0-0.07-0.04-0.05-0.08
		C6.24,2.1,6.27,2.06,6.3,2.02z"/>
	<path class="st100" d="M5.37,5.15C5.38,5.09,5.4,5.02,5.41,4.96C5.5,5.05,5.55,5.12,5.37,5.15z"/>
	<path class="st99" d="M6.22,2.33c0,0.04-0.01,0.07-0.04,0.07c-0.03,0-0.04-0.04-0.05-0.07c-0.01-0.03,0-0.07,0.04-0.07
		C6.2,2.27,6.22,2.3,6.22,2.33z"/>
	<path class="st101" d="M3.92,2.28C4,2.32,3.99,2.38,4.01,2.47C3.9,2.43,3.92,2.35,3.92,2.28C3.92,2.28,3.92,2.28,3.92,2.28z"/>
	<path class="st102" d="M5.18,4.93c-0.02,0-0.05,0-0.07,0c-0.03-0.01-0.07,0-0.08-0.02C5.02,4.89,5.05,4.86,5.07,4.86
		C5.13,4.85,5.18,4.85,5.18,4.93z"/>
	<path class="st57" d="M4.14,2.4c0.01,0,0.02,0,0.04,0C4.1,2.48,4.1,2.48,4.04,2.34C4.08,2.36,4.11,2.38,4.14,2.4z"/>
	<path class="st103" d="M6.6,2.47c0,0.06,0.05,0.1,0.07,0.15C6.55,2.59,6.53,2.55,6.6,2.47z"/>
	<path class="st104" d="M6.49,4.37c0,0.04,0,0.07,0,0.11C6.48,4.49,6.47,4.54,6.46,4.51C6.44,4.47,6.44,4.41,6.49,4.37z"/>
	<path class="st68" d="M9.84,5.74C9.78,5.78,9.73,5.79,9.69,5.73c-0.06-0.12-0.18-0.17-0.3-0.24c0.15-0.09,0.22,0.03,0.29,0.09
		c0.07,0.07,0.13,0.09,0.2,0.01c0.08-0.09,0.17-0.08,0.27-0.05c0.02,0.08-0.08,0.05-0.09,0.1C10,5.7,9.94,5.76,9.84,5.74z"/>
	<path class="st105" d="M12.26,2.65c0.02,0.08,0.1,0.09,0.15,0.12c0.04,0.03,0.08,0.06,0.05,0.1c-0.03,0.05-0.1,0.01-0.11-0.01
		c-0.08-0.16-0.16-0.07-0.24-0.01c-0.04,0.03-0.1,0.11-0.15,0.02c-0.04-0.06-0.01-0.13,0.07-0.17C12.11,2.67,12.18,2.65,12.26,2.65
		C12.26,2.65,12.26,2.65,12.26,2.65z"/>
	<path class="st68" d="M12.18,5.15c0.06-0.03,0.13-0.11,0.15,0.04c-0.09,0.14-0.11,0.3-0.06,0.46c-0.03,0-0.06,0-0.09,0
		C12.18,5.48,12.18,5.32,12.18,5.15z"/>
	<path class="st106" d="M10.69,5.56c0.07,0.1,0.13-0.05,0.2-0.01c0.01,0.05-0.05,0.05-0.06,0.09c0,0.02-0.02,0.03-0.04,0.04
		c-0.1,0.04-0.2-0.1-0.3,0c-0.02,0.02-0.05,0.02-0.07,0c-0.02-0.12,0.11-0.09,0.15-0.15C10.63,5.49,10.68,5.47,10.69,5.56z"/>
	<path class="st107" d="M12.96,4.37c-0.01,0.01-0.03,0.02-0.04,0.04c-0.04-0.01-0.09-0.03-0.06-0.06c0.1-0.12,0.04-0.26,0.1-0.38
		C13.01,4.09,13.02,4.23,12.96,4.37z"/>
	<path class="st108" d="M9.84,5.74c0.07-0.04,0.13-0.11,0.22-0.11c0.04,0,0.08,0.01,0.09,0.05c0.01,0.04-0.03,0.06-0.06,0.06
		C10,5.74,9.92,5.93,9.84,5.74z"/>
	<path class="st109" d="M9.09,4.74c0.01,0,0.02,0,0.04,0c0.06,0.01,0.15,0,0.07,0.09c-0.03,0.04-0.05,0.1-0.11,0.11
		C9.03,4.87,9.11,4.81,9.09,4.74z"/>
	<path class="st110" d="M9.95,6.04C9.92,6.08,9.9,6.12,9.87,6.15C9.82,6.18,9.79,6.17,9.78,6.11c0-0.06,0.04-0.1,0.08-0.13
		C9.92,5.95,9.94,5.99,9.95,6.04z"/>
	<path class="st109" d="M10.69,5.56c-0.03-0.04-0.07-0.04-0.11-0.04c-0.04-0.08,0.03-0.1,0.08-0.1c0.04,0,0.11,0.02,0.12,0.05
		C10.8,5.54,10.74,5.55,10.69,5.56z"/>
	<path class="st111" d="M11.18,6.22c-0.07,0-0.12,0-0.14-0.08c0-0.01,0.03-0.05,0.05-0.05C11.16,6.09,11.18,6.15,11.18,6.22z"/>
	<path class="st112" d="M10.43,5.67c0.02,0,0.05,0,0.07,0c0.03,0,0.08-0.01,0.09,0.03c0.01,0.03-0.01,0.06-0.04,0.07
		C10.49,5.77,10.44,5.74,10.43,5.67z"/>
	<path class="st113" d="M11.88,5.82c0,0.01,0,0.02,0,0.04c-0.04,0.01-0.08,0.06-0.13,0.01c-0.02-0.02-0.02-0.05,0-0.06
		C11.8,5.77,11.85,5.77,11.88,5.82z"/>
	<path class="st114" d="M12.81,4.63c-0.02,0.01-0.05,0.03-0.07,0.04c-0.04-0.03-0.1-0.06-0.05-0.11C12.76,4.5,12.8,4.56,12.81,4.63z
		"/>
	<path class="st115" d="M10.8,5.67c0.01-0.01,0.02-0.02,0.04-0.04c0.04,0.01,0.08,0.02,0.07,0.07c-0.01,0.05-0.05,0.05-0.09,0.04
		C10.77,5.73,10.8,5.7,10.8,5.67z"/>
	<path class="st76" d="M10.92,2.62c0.08,0,0.16,0,0.23,0C11.07,2.66,10.99,2.68,10.92,2.62C10.92,2.62,10.92,2.62,10.92,2.62z"/>
	<path class="st76" d="M11.44,2.47c0.06-0.05,0.12-0.05,0.19,0C11.56,2.47,11.5,2.47,11.44,2.47z"/>
	<path class="st116" d="M9.32,6.26C9.28,6.28,9.27,6.29,9.27,6.29C9.25,6.28,9.23,6.26,9.22,6.24C9.21,6.22,9.22,6.21,9.25,6.22
		C9.27,6.23,9.29,6.24,9.32,6.26z"/>
	<path class="st47" d="M7.26,5.26c0,0.03-0.01,0.05-0.04,0.05c-0.04,0-0.05-0.03-0.06-0.06c0-0.03,0-0.05,0.04-0.05
		C7.23,5.2,7.25,5.22,7.26,5.26z"/>
	<path class="st117" d="M15.16,8.65c0.01-0.04,0.03-0.07,0.04-0.11c0.08,0.09-0.02,0.14-0.01,0.23C15.11,8.71,15.15,8.68,15.16,8.65
		z"/>
	<path class="st118" d="M15.11,8.98C15.08,8.92,15,8.94,14.96,8.91c0.02-0.02,0.03-0.05,0.05-0.05C15.09,8.86,15.1,8.91,15.11,8.98z
		"/>
	<path class="st119" d="M6.1,8.59c0.06,0.13,0,0.22,0.05,0.3c0.01,0.02,0.03,0.1-0.04,0.09c-0.05,0-0.07-0.05-0.06-0.1
		C6.06,8.81,6.07,8.72,6.1,8.59z"/>
	<path class="st120" d="M6.45,10.02c-0.04,0.03-0.09,0.06-0.16,0.11c0.04-0.11,0.06-0.19,0.15-0.2C6.48,9.93,6.44,9.99,6.45,10.02
		C6.45,10.03,6.45,10.02,6.45,10.02z"/>
	<path class="st121" d="M6.37,9.68c0,0.03-0.02,0.06-0.05,0.07C6.28,9.75,6.27,9.72,6.27,9.69c0-0.03,0.01-0.06,0.05-0.07
		C6.35,9.62,6.37,9.64,6.37,9.68z"/>
	<path class="st122" d="M6.8,9.3C6.74,9.24,6.73,9.2,6.79,9.14C6.83,9.19,6.83,9.24,6.8,9.3z"/>
	<path class="st123" d="M5.52,11.63C5.51,11.62,5.5,11.6,5.5,11.59c0-0.02,0.02-0.03,0.04-0.02c0.01,0.01,0.01,0.03,0.01,0.05
		C5.55,11.62,5.53,11.63,5.52,11.63z"/>
	<path class="st124" d="M7.85,11.05c-0.07-0.09-0.05-0.13,0.01-0.19C7.9,10.93,7.86,10.98,7.85,11.05z"/>
	<path class="st125" d="M8.18,11.46c-0.01-0.01-0.02-0.02-0.03-0.03c-0.01-0.02,0.01-0.03,0.03-0.03c0.01,0,0.03,0.01,0.04,0.03
		C8.23,11.45,8.21,11.46,8.18,11.46z"/>
	<path class="st126" d="M7.19,11.06c0,0.05-0.01,0.08-0.06,0.07c-0.07-0.02-0.13-0.07-0.14-0.15c0-0.04,0.02-0.1,0.07-0.09
		C7.14,10.91,7.16,10.99,7.19,11.06z"/>
	<path class="st108" d="M7.6,11.4c0.02,0.05,0.05,0.1,0.07,0.15c-0.01,0.06-0.05,0.08-0.1,0.07c-0.05-0.02-0.05-0.07-0.04-0.11
		C7.55,11.47,7.58,11.44,7.6,11.4z"/>
	<path class="st127" d="M7.08,9.61C7.09,9.6,7.11,9.59,7.12,9.58c0.01,0.04,0.09,0.04,0.05,0.1C7.15,9.69,7.12,9.69,7.1,9.7
		C7.09,9.67,7.09,9.64,7.08,9.61z"/>
	<path class="st37" d="M7.42,10.36c0,0.1,0,0.2,0,0.3C7.36,10.56,7.36,10.46,7.42,10.36z"/>
	<path class="st128" d="M7.33,10.81c0.03,0,0.04,0.03,0.04,0.05c0,0.03-0.02,0.05-0.05,0.04c-0.02-0.01-0.04-0.03-0.04-0.05
		C7.28,10.82,7.31,10.81,7.33,10.81z"/>
	<path class="st129" d="M1.58,7.12C1.53,6.96,1.43,6.84,1.47,6.67C1.62,6.79,1.64,6.84,1.58,7.12z"/>
	<path class="st129" d="M1.46,6.56C1.48,6.58,1.49,6.59,1.5,6.6c-0.01,0-0.01,0-0.02,0c-0.07,0-0.12,0.12-0.21,0.04
		C1.26,6.63,1.25,6.6,1.26,6.6C1.32,6.53,1.4,6.58,1.46,6.56z"/>
	<path class="st130" d="M0.68,6.99c0.04,0.1,0.05,0.16,0,0.24C0.63,7.15,0.64,7.09,0.68,6.99z"/>
	<path class="st131" d="M1.47,7.4c-0.03,0.01-0.07,0-0.07-0.04C1.39,7.31,1.44,7.33,1.47,7.32C1.5,7.31,1.53,7.32,1.53,7.36
		C1.54,7.41,1.5,7.39,1.47,7.4z"/>
	<path class="st132" d="M14.3,7.12c0.05-0.01,0.1-0.03,0.15-0.04c0.06,0.07,0.15,0,0.22,0.04c0.27,0.09,0.45,0.29,0.45,0.48
		c0,0.07-0.04,0.05-0.07,0.04c-0.07-0.02-0.14-0.05-0.21-0.07c-0.05-0.02-0.08-0.05-0.09-0.09c-0.03-0.07-0.02-0.15-0.1-0.21
		c-0.06,0.1-0.06,0.18,0.01,0.27c0.06,0.06,0.12,0.12,0.2,0.15c0.08,0.03,0.17,0,0.24,0.06c0.02,0.04,0.02,0.08-0.01,0.11
		c-0.03,0.04-0.07,0.04-0.11,0.04c-0.15,0.07-0.27,0.18-0.41,0.26C14.43,8.13,14.48,8.04,14.54,8c0.14-0.11,0.14-0.2,0-0.3
		c-0.05-0.04-0.05-0.1-0.05-0.15c0-0.08-0.04-0.14-0.12-0.16c-0.05-0.01-0.11-0.01-0.12-0.07c-0.01-0.07,0.07-0.05,0.11-0.07
		c0.02-0.01,0.04-0.02,0.07-0.02C14.42,7.14,14.33,7.18,14.3,7.12z"/>
	<path class="st133" d="M14.56,8.16c0.11-0.13,0.21-0.26,0.41-0.26c0.21,0.2-0.05,0.16-0.11,0.22c-0.07,0.08-0.02,0.22-0.15,0.26
		C14.54,8.4,14.56,8.27,14.56,8.16z"/>
	<path class="st86" d="M14.71,8.39c0.08-0.07-0.01-0.23,0.15-0.26c0.13-0.02,0.15,0.04,0.09,0.14C14.88,8.4,14.78,8.45,14.71,8.39z"
		/>
	<path class="st134" d="M14.12,7.13c0.04,0.01,0.07,0.02,0.11,0.03c-0.01,0.09-0.07,0.14-0.14,0.1C14.01,7.21,14.1,7.17,14.12,7.13z
		"/>
	<path class="st135" d="M15.08,7.87c0-0.04,0-0.07,0-0.11c0.04-0.09,0.07-0.05,0.1,0.01c0.02,0.05,0,0.1-0.02,0.14c0,0,0,0,0,0
		C15.13,7.89,15.11,7.88,15.08,7.87z"/>
	<path class="st136" d="M13.89,8.02c0,0.01-0.01,0.04-0.02,0.04c-0.03,0-0.04-0.02-0.05-0.05c-0.01-0.03,0-0.05,0.03-0.05
		C13.89,7.96,13.89,7.99,13.89,8.02z"/>
	<path class="st137" d="M13.85,7.7c-0.03-0.01-0.03-0.04-0.02-0.06c0.01-0.02,0.02-0.05,0.05-0.04c0.01,0,0.01,0.03,0.01,0.05
		C13.89,7.67,13.88,7.7,13.85,7.7z"/>
	<path class="st79" d="M4.51,6.53C4.49,6.51,4.46,6.5,4.44,6.49c0.01-0.04,0.01-0.07,0.02-0.1c0.02-0.03,0.06-0.05,0.09-0.03
		C4.6,6.38,4.56,6.41,4.54,6.44C4.53,6.47,4.52,6.5,4.51,6.53z"/>
	<path class="st6" d="M8.49,10.65c0.06-0.01,0.11-0.05,0.14-0.12C8.62,10.69,8.62,10.69,8.49,10.65
		C8.49,10.65,8.49,10.65,8.49,10.65z"/>
	<path class="st6" d="M8.77,10.95c-0.09,0.07-0.14,0.08-0.2-0.01C8.64,10.94,8.69,10.94,8.77,10.95z"/>
	<path class="st0" d="M4.81,8.72C4.63,9.34,4.6,9.96,4.69,10.6c0.05,0.37,0.14,0.74,0.24,1.1c-0.18-0.02-0.13-0.2-0.21-0.29
		c-0.02-0.05,0-0.1-0.07-0.14c-0.13-0.08-0.06-0.23-0.09-0.35c0.03,0.09,0.01,0.18-0.02,0.27c-0.01,0.05-0.05,0.07-0.09,0.08
		c-0.05,0.01-0.09-0.02-0.1-0.06c-0.02-0.12-0.12-0.22-0.05-0.35c0-0.17,0.04-0.33,0.04-0.5C4.32,9.98,4.24,9.64,4.1,9.32
		C3.94,8.96,3.86,8.6,3.96,8.22c0.02-0.07,0.06-0.15,0.12-0.18c0.19-0.11,0.37-0.23,0.58-0.28c0.09-0.05,0.2,0.01,0.3-0.04
		c0.1,0.01,0.21-0.02,0.34-0.04C5.12,8.04,4.88,8.34,4.81,8.72z"/>
	<path class="st138" d="M4.29,10.84c-0.03,0.13,0.09,0.22,0.09,0.35c0,0.06,0.11,0.03,0.11,0c-0.02-0.08,0.15-0.15,0.01-0.23
		c-0.03-0.02,0.02-0.09,0.03-0.14c0.08,0.05,0.16,0.1,0.06,0.21c-0.07,0.08,0.04,0.17,0.07,0.19c0.08,0.05,0.06,0.11,0.07,0.18
		c0,0.01,0,0.02-0.01,0.03c-0.03,0.16-0.1,0.3-0.1,0.46c0,0.05-0.03,0.09-0.07,0.12c-0.04,0.02-0.07,0.02-0.11,0
		c-0.11-0.17-0.03-0.34-0.01-0.51c-0.03,0.06-0.09,0.08-0.12,0.15c-0.05,0.1-0.13,0.09-0.17-0.02c0.01-0.07,0.02-0.15,0.04-0.22
		c0.09-0.04,0.11-0.1,0.07-0.19C4.27,11.09,4.22,10.96,4.29,10.84z"/>
	<path class="st139" d="M4.14,11.62c0.16,0.16,0.13-0.1,0.22-0.1c0.01,0,0.01-0.05,0.02-0.06c0.02-0.02,0.06-0.06,0.08-0.06
		c0.05,0.01,0.05,0.07,0.03,0.11C4.42,11.66,4.44,11.83,4.44,12c-0.01,0.03-0.04,0.06-0.06,0.09c-0.01,0.02-0.03,0.03-0.05,0.04
		c-0.04,0.02-0.07,0.01-0.11,0.02c-0.08-0.05-0.17-0.11-0.25-0.16c0.01-0.03,0.02-0.07,0.03-0.1C4.06,11.81,4.06,11.69,4.14,11.62z"
		/>
	<path class="st139" d="M4.25,11.21c0.03,0.08,0.14,0.2-0.07,0.19C4.16,11.32,4.25,11.28,4.25,11.21z"/>
	<path class="st140" d="M4.96,7.72c-0.09,0.07-0.2,0.02-0.3,0.04C4.75,7.68,4.86,7.73,4.96,7.72z"/>
	<path class="st0" d="M5.37,5.56c0,0.21,0.06,0.43-0.04,0.63c-0.11-0.06-0.09-0.2-0.06-0.26C5.32,5.81,5.31,5.67,5.37,5.56z"/>
	<path class="st141" d="M5.18,6.52c-0.01,0-0.02,0-0.04,0C5.1,6.52,5.06,6.52,5.01,6.56C4.91,6.65,4.88,6.6,4.89,6.49
		c0-0.05,0.02-0.09,0.07-0.11c0.06,0.01,0.12,0.03,0.18,0.04C5.24,6.42,5.18,6.48,5.18,6.52z"/>
	<path class="st142" d="M4.55,7.31c-0.05,0-0.1,0-0.2,0c0.14-0.07,0.01-0.26,0.2-0.26c0.04-0.02,0.07,0,0.09,0.03
		c0.02,0.02,0.03,0.05,0.04,0.07c0.03-0.02,0-0.05,0.01-0.08C4.7,7.03,4.71,7,4.74,6.97C4.82,6.9,4.87,6.99,4.87,7.03
		C4.86,7.16,4.98,7.19,5.04,7.27c0,0.06-0.04,0.08-0.08,0.08C4.82,7.34,4.68,7.38,4.55,7.31z"/>
	<path class="st143" d="M4.55,7.31c0.16-0.02,0.33,0.04,0.48-0.04c0.05-0.03,0.09-0.04,0.15-0.04C5.2,7.24,5.2,7.25,5.2,7.26
		c0,0.01-0.01,0.01-0.01,0.01C5.12,7.33,5,7.33,5,7.45c-0.02,0-0.05,0-0.07,0C4.76,7.33,4.62,7.36,4.48,7.49
		C4.43,7.48,4.35,7.52,4.35,7.44c0-0.05,0.04-0.1,0.11-0.1C4.49,7.35,4.53,7.34,4.55,7.31z"/>
	<path class="st144" d="M4.74,6.97c0,0.04,0,0.07,0,0.11c-0.04,0.03-0.07,0.03-0.11,0C4.6,7.07,4.58,7.06,4.55,7.05
		C4.56,7.02,4.58,7,4.59,6.98C4.64,6.97,4.69,6.97,4.74,6.97z"/>
	<path class="st145" d="M5.18,7.27c0-0.01,0-0.02,0-0.04c0.05-0.02,0.09-0.06,0.15-0.01c0.02,0.02,0.02,0.04,0,0.06
		C5.28,7.33,5.23,7.29,5.18,7.27z"/>
	<path class="st146" d="M4.92,6.98C4.9,6.97,4.87,6.95,4.88,6.92c0-0.02,0.04-0.03,0.06-0.03c0.04,0,0.05,0.03,0.04,0.06
		C4.96,6.96,4.96,6.99,4.92,6.98z"/>
	<path class="st147" d="M4.17,7.34c0-0.02,0-0.04,0-0.05C4.18,7.28,4.2,7.26,4.21,7.26c0.03,0.01,0.04,0.03,0.02,0.05
		C4.21,7.32,4.2,7.33,4.17,7.34z"/>
	<path class="st148" d="M4.37,12.07c0-0.05,0.03-0.07,0.07-0.07c0.04,0,0.07,0,0.11,0c0.1,0.01,0.2,0.09,0.29-0.02
		c-0.04-0.06-0.04-0.06-0.11,0.01c-0.09,0.03-0.12-0.02-0.11-0.1c0.02-0.17,0.07-0.33,0.12-0.49h0c0.12,0.06,0.05,0.25,0.19,0.3
		c0.01,0.01,0.02,0.02,0.04,0.04c0.05,0.1,0.1,0.2,0.15,0.3c0.02,0.09-0.05,0.12-0.11,0.16c-0.12,0.06,0.01,0.06,0.02,0.1
		c0.03,0.04,0.05,0.07,0.02,0.12c-0.07,0-0.15,0-0.22,0c-0.02-0.01-0.05-0.02-0.07-0.04c-0.07-0.04-0.18-0.03-0.2-0.13
		c0-0.06,0-0.12-0.08-0.12C4.42,12.11,4.39,12.1,4.37,12.07z"/>
	<path class="st0" d="M15.16,7.9c-0.04-0.04,0.07-0.16-0.07-0.15C15,7.74,14.9,7.79,14.82,7.72c0.12-0.04,0.02-0.12,0.04-0.19
		c0.09,0.02,0.17,0.05,0.26,0.07C15.24,7.69,15.25,7.79,15.16,7.9z"/>
	<path class="st0" d="M14.67,7.12c-0.08,0.01-0.17,0.09-0.22-0.04C14.53,7.09,14.61,7.06,14.67,7.12z"/>
	<path class="st10" d="M4.89,6.49c0.05,0.07,0.04,0.06,0.1,0.01c0.06-0.05,0.12-0.07,0.16,0.02C5.05,6.62,4.93,6.64,4.8,6.68
		C4.81,6.59,4.84,6.54,4.89,6.49z"/>
	<path class="st68" d="M4.55,12.22c0.03,0.09,0.13,0.09,0.19,0.15c-0.17-0.02-0.33-0.06-0.45-0.19c0-0.03,0.03-0.05,0.04-0.08
		c0.01-0.01,0.02-0.02,0.04-0.04c0.04,0,0.07,0,0.11,0C4.52,12.11,4.54,12.16,4.55,12.22z"/>
	<path class="st149" d="M4.33,12.11c0.04,0.05-0.01,0.06-0.04,0.08c-0.03-0.01-0.05-0.02-0.08-0.04C4.24,12.1,4.29,12.11,4.33,12.11
		z"/>
	<path class="st150" d="M5.04,12.4C5.02,12.37,5.01,12.33,5,12.29c0.04-0.13,0.13-0.12,0.22-0.07c0,0,0,0,0,0
		c0.06,0.12-0.09,0.11-0.11,0.19C5.09,12.4,5.06,12.4,5.04,12.4z"/>
	<path class="st68" d="M5.22,12.22c-0.08,0-0.16,0.02-0.22,0.07c-0.06,0-0.13,0-0.13-0.07c-0.01-0.08,0.06-0.06,0.12-0.07
		c0.06-0.01,0.1-0.07,0.13-0.12c0.01,0,0.02,0,0.03,0C5.14,12.11,5.19,12.16,5.22,12.22z"/>
	<path class="st135" d="M14.86,7.53c0.01,0.01,0.01,0.02,0.02,0.03C14.9,7.61,15,7.6,14.98,7.67c-0.02,0.07-0.1,0.04-0.16,0.05
		c-0.09-0.01-0.14-0.08-0.19-0.15c-0.01-0.02,0,0.01-0.01-0.01c-0.05-0.07-0.08-0.16,0.01-0.21c0.1-0.06,0.1,0.07,0.15,0.11
		C14.79,7.5,14.81,7.53,14.86,7.53z"/>
	<path class="st0" d="M14.79,7.46c-0.06,0-0.06-0.13-0.14-0.09c-0.09,0.05-0.01,0.13-0.01,0.2c-0.08-0.08-0.11-0.28-0.04-0.34
		c0.05-0.04,0.09-0.04,0.12,0.02C14.74,7.31,14.76,7.39,14.79,7.46z"/>
	<path class="st151" d="M4.14,8.91c0.01-0.04-0.02-0.1,0.06-0.14c0.01,0.16,0.02,0.31,0.08,0.46c0.01,0.03,0.03,0.1-0.04,0.1
		c-0.04,0-0.08-0.03-0.1-0.07C4.13,9.17,4.12,9.1,4.1,9.02C4.08,8.97,4.11,8.94,4.14,8.91z"/>
	<path class="st140" d="M4.22,8.09C4.24,8.18,4.35,8.2,4.36,8.3c0,0.01-0.03,0.03-0.03,0.03c-0.06-0.06-0.16-0.09-0.17-0.2
		C4.15,8.11,4.17,8.1,4.22,8.09z"/>
	<path class="st9" d="M4.14,8.91C4.13,8.94,4.12,8.98,4.1,9.02C4.06,9,4.02,8.97,4.05,8.91C4.08,8.87,4.11,8.9,4.14,8.91z"/>
	<path class="st139" d="M4.89,12c0.02,0.02,0.03,0.05,0.01,0.06C4.78,12.07,4.65,12.13,4.55,12c0.05-0.17,0.05-0.35,0.11-0.51
		c0.02-0.04,0.02-0.08,0.08-0.08c0.03,0.16-0.06,0.31-0.09,0.46c-0.02,0.08-0.03,0.14,0.09,0.1C4.79,11.97,4.84,11.99,4.89,12z"/>
	<path class="st152" d="M4.63,7.08c0.04,0,0.07,0,0.11,0C4.72,7.13,4.83,7.21,4.71,7.23C4.59,7.24,4.67,7.12,4.63,7.08z"/>
	<path class="st153" d="M4.89,12c-0.07,0.05-0.12,0.07-0.15-0.04c0-0.06,0-0.12,0.08-0.11C4.91,11.86,4.88,11.94,4.89,12z"/>
	<path class="st138" d="M4.55,12.22c-0.07-0.03-0.08-0.09-0.07-0.15C4.56,12.09,4.63,12.12,4.55,12.22z"/>
</g>
</svg>
