<?xml version="1.0" encoding="utf-8"?>
<!-- Generator: Adobe Illustrator 25.4.1, SVG Export Plug-In . SVG Version: 6.00 Build 0)  -->
<svg version="1.1" id="Layer_1" xmlns="http://www.w3.org/2000/svg" xmlns:xlink="http://www.w3.org/1999/xlink" x="0px" y="0px"
	 viewBox="0 0 16 16" style="enable-background:new 0 0 16 16;" xml:space="preserve">
<style type="text/css">
	.st0{fill:#FECC37;}
</style>
<path class="st0" d="M13.45,6.59c-0.4-0.44-0.76-0.94-1.29-1.25C12,5.18,11.85,5.02,11.7,4.86c-0.27-0.4-0.44-0.83-0.35-1.33
	c0.01-0.09,0.01-0.18,0.01-0.28c0.14-0.06,0.15-0.17,0.13-0.29c0.02-0.33,0.1-0.66,0.06-0.98c-0.06-0.62-0.32-1.15-0.95-1.38
	C10.02,0.4,9.42,0.32,8.8,0.46C8.24,0.59,8.23,0.6,8.19,1.19c0,0.06-0.01,0.12-0.04,0.17C7.86,1.91,7.97,2.58,7.58,3.1
	C7.53,3.17,7.49,3.35,7.63,3.37C8.14,3.45,7.9,3.83,7.83,4.02C7.71,4.34,7.85,4.35,8.08,4.37c0.1,0.01,0.21,0.03,0.31,0.05
	c0.52,0.11,0.64,0.41,0.32,0.84c0.2,0.01,0.29-0.2,0.47-0.2C9.15,5.13,9.12,5.2,9.09,5.27C8.85,5.44,8.62,5.65,8.35,5.81
	C8.54,5.81,8.66,5.96,8.81,6c0.18,0.14,0.36,0.28,0.54,0.42C9.33,6.63,9.23,6.48,9.17,6.45C8.82,6.24,8.46,6.07,8.04,6.06
	C7.23,5.9,6.52,6.16,5.84,6.6C5.81,6.47,6.11,6.38,5.82,6.26C4.85,5.88,3.78,6.16,3.13,6.98c-0.07,0.09-0.12,0.25-0.3,0.17
	c0.1-0.19,0.22-0.36,0.3-0.56c0.34-0.82,0.25-1.66,0.11-2.48c-0.06-0.34,0.07-0.38,0.31-0.4C3.77,3.7,4,3.7,4.22,3.68
	C4.55,3.64,4.68,3.36,4.8,3.1c0.09-0.18-0.03-0.33-0.21-0.42C4.49,2.62,4.37,2.57,4.27,2.5C3.96,2.27,3.66,2.35,3.39,2.56
	C3.03,2.82,2.72,3.13,2.61,3.59c-0.06,0-0.1,0.01-0.13,0.08C2.25,4.2,2.02,4.74,1.76,5.26c-0.3,0.6-0.48,1.22-0.41,1.9
	C1.39,7.5,1.47,7.85,1.79,8.01c0.78,0.39,1.6,0.67,2.5,0.66C5,8.66,5.66,8.38,6.35,8.31C6.37,8.33,6.4,8.35,6.42,8.37
	C6.35,8.42,6.28,8.46,6.2,8.51C6.09,8.52,5.97,8.5,5.87,8.62C6.13,8.81,6.38,9,6.7,9.09C6.81,9.21,6.96,9.26,7.11,9.3
	c0.05,0.07,0.17,0.08,0.16,0.2c-0.11,0.29-0.11,0.58-0.01,0.88c0.09,0.65,0.57,1.16,0.65,1.86c0.37-0.49,0.41-1.04,0.7-1.53
	c0.07,0.65-0.18,1.19-0.39,1.72c-0.28,0.69-0.61,1.36-0.67,2.12c-0.22,0.1-0.1,0.29-0.12,0.44c-0.01,0.14-0.03,0.28-0.03,0.42
	c0,0.08-0.07,0.21,0.09,0.22c0.09,0,0.12-0.08,0.15-0.16c0.2-0.48,0.45-0.94,0.78-1.34c0.75-0.9,1.6-1.69,2.49-2.46
	c0.66-0.57,1.32-1.13,1.89-1.79c0.23-0.27,0.41-0.58,0.64-0.86C13.85,8.48,13.89,7.08,13.45,6.59z M10.51,5.13
	c-0.01,0-0.01,0-0.02,0c0,0,0,0,0,0C10.5,5.13,10.51,5.13,10.51,5.13z"/>
</svg>
