<?xml version="1.0" encoding="utf-8"?>
<!-- Generator: Adobe Illustrator 25.4.1, SVG Export Plug-In . SVG Version: 6.00 Build 0)  -->
<svg version="1.1" id="Layer_1" xmlns="http://www.w3.org/2000/svg" xmlns:xlink="http://www.w3.org/1999/xlink" x="0px" y="0px"
	 viewBox="0 0 16 16" style="enable-background:new 0 0 16 16;" xml:space="preserve">
<style type="text/css">
	.st0{fill:#020203;}
</style>
<g>
	<path class="st0" d="M12.88,2.08c0.41,0,0.82,0.02,1.23-0.01c0.29-0.02,0.48,0.08,0.7,0.26c0.33,0.28,0.48,0.59,0.42,1.03
		c-0.04,0.27-0.04,0.56-0.01,0.83C15.27,4.67,15.1,5,14.75,5.33c-0.27,0.26-0.56,0.26-0.86,0.24c-0.28-0.02-0.37,0.05-0.32,0.34
		c0.18,1.29,0.15,2.58-0.07,3.86c-0.04,0.23,0.04,0.3,0.25,0.33c0.27,0.04,0.58,0.01,0.79,0.18c0.37,0.29,0.72,0.6,0.61,1.17
		c-0.08,0.38-0.04,0.79-0.08,1.18c-0.02,0.2,0.1,0.42-0.12,0.59c-0.33,0.25-0.62,0.59-1.08,0.6c-0.61,0.02-1.21,0.01-1.82,0.03
		c-0.66,0.02-1.04-0.44-1.46-0.83c-0.05-0.05-0.05-0.17-0.05-0.26c-0.03-0.46-0.05-0.92-0.07-1.38c-0.01-0.42,0.48-1.09,0.88-1.21
		c0.08-0.02,0.15-0.05,0.23-0.06c0.68-0.14,0.67-0.14,0.61-0.82c-0.11-1.08-0.01-2.16,0.09-3.24c0.03-0.34,0.03-0.58-0.41-0.48
		c-0.61,0.13-0.95-0.25-1.29-0.64c-0.13-0.14-0.18-2.04-0.05-2.17c0.35-0.33,0.63-0.78,1.24-0.67c0.36,0.06,0.74,0.01,1.11,0.01
		C12.88,2.1,12.88,2.09,12.88,2.08z"/>
	<path class="st0" d="M9.74,11.87c-0.63-0.08-1-0.45-1.25-1c-0.29-0.62-0.32-0.6-0.97-0.48c-0.64,0.12-1.29,0.14-1.93,0.05
		c-0.2-0.03-0.27,0.02-0.28,0.24c-0.03,0.45-0.4,0.76-0.52,1.17c-0.2,0.66-0.68,0.8-1.28,0.83c-0.52,0.03-1.02,0.12-1.53-0.17
		c-0.77-0.44-1.1-1.12-1.25-1.93c-0.01-0.04,0.01-0.08,0-0.12c-0.2-1.03,0.27-1.86,0.83-2.66c0.06-0.09,0.12-0.18,0.24-0.18
		c0.75,0.02,1.49-0.21,2.25-0.04c0.21,0.05,0.32,0.13,0.42,0.3c0.22,0.39,0.48,0.76,0.69,1.15c0.12,0.23,0.26,0.27,0.5,0.23
		c0.75-0.14,1.52-0.19,2.28-0.18c0.18,0,0.25-0.03,0.24-0.24C8.14,8.48,8.47,8.26,8.58,7.94c0.2-0.54,0.58-0.75,1.14-0.72
		c0.47,0.03,0.94-0.12,1.41,0.03c0.23,0.07,0.31,0.16,0.3,0.41c-0.02,0.57-0.05,1.14,0.04,1.7c0.03,0.17,0,0.29-0.2,0.29
		c-0.74,0.01-1.05,0.63-1.49,1.06c-0.18,0.18-0.02,0.43-0.03,0.65C9.73,11.53,9.74,11.7,9.74,11.87z"/>
</g>
</svg>
