<?xml version="1.0" encoding="utf-8"?>
<!-- Generator: Adobe Illustrator 25.4.1, SVG Export Plug-In . SVG Version: 6.00 Build 0)  -->
<svg version="1.1" id="Layer_1" xmlns="http://www.w3.org/2000/svg" xmlns:xlink="http://www.w3.org/1999/xlink" x="0px" y="0px"
	 viewBox="0 0 16 16" style="enable-background:new 0 0 16 16;" xml:space="preserve">
<g>
	<path d="M11.8,2.18c-0.03,0.42-0.05,0.84-0.08,1.25c-0.01,0.12,0.02,0.19,0.11,0.26c0.35,0.31,0.69,0.62,1.05,0.93
		c0.13,0.11,0.14,0.2,0.03,0.33c-0.31,0.36-0.61,0.72-0.91,1.09c-0.05,0.06-0.08,0.18-0.07,0.26c0.09,0.45,0.19,0.9,0.29,1.35
		c0.05,0.22,0.03,0.26-0.19,0.31c-0.45,0.11-0.89,0.23-1.34,0.33c-0.12,0.03-0.18,0.09-0.23,0.2C10.29,8.9,10.11,9.3,9.93,9.71
		c-0.1,0.23-0.12,0.24-0.35,0.15C9.15,9.69,8.73,9.52,8.3,9.35C8.23,9.33,8.11,9.33,8.04,9.37c-0.41,0.22-0.81,0.46-1.21,0.7
		c-0.15,0.09-0.24,0.07-0.34-0.08C6.25,9.6,6,9.21,5.76,8.82C5.7,8.71,5.62,8.66,5.49,8.65C5.02,8.61,4.54,8.56,4.06,8.52
		C3.93,8.5,3.9,8.42,3.91,8.3C3.94,7.91,3.95,7.5,4,7.11c0.03-0.26-0.01-0.45-0.23-0.62c-0.32-0.25-0.61-0.54-0.92-0.8
		c-0.13-0.11-0.14-0.2-0.03-0.33C3.14,5,3.44,4.63,3.74,4.27C3.79,4.21,3.81,4.11,3.8,4.03C3.71,3.56,3.61,3.09,3.5,2.62
		C3.46,2.45,3.51,2.4,3.66,2.37c0.46-0.11,0.91-0.23,1.37-0.34C5.15,2,5.21,1.94,5.26,1.83C5.44,1.41,5.62,1,5.8,0.58
		c0.1-0.22,0.12-0.23,0.35-0.14c0.43,0.17,0.85,0.35,1.28,0.51c0.07,0.03,0.19,0.02,0.26-0.02C8.11,0.7,8.51,0.46,8.92,0.22
		c0.14-0.08,0.22-0.07,0.31,0.07c0.23,0.39,0.48,0.77,0.72,1.16c0.08,0.13,0.17,0.19,0.32,0.2c0.39,0.03,0.77,0.08,1.16,0.11
		C11.82,1.8,11.82,1.79,11.8,2.18z M7.85,2.07c-1.72,0.01-3.08,1.38-3.07,3.1c0.01,1.7,1.39,3.06,3.1,3.06
		c1.72-0.01,3.07-1.39,3.06-3.13C10.94,3.43,9.55,2.07,7.85,2.07z"/>
	<path d="M4.93,15.8c0-0.08-0.01-0.14-0.01-0.2c0-1.83,0-3.66,0-5.49c0-0.12,0.03-0.19,0.14-0.24C5.24,9.79,5.41,9.69,5.6,9.58
		C5.7,9.75,5.8,9.91,5.9,10.07c0.16,0.26,0.33,0.53,0.49,0.79c0.11,0.18,0.17,0.2,0.35,0.09c0.4-0.23,0.81-0.46,1.21-0.71
		c0.17-0.1,0.31-0.11,0.48-0.03c0.43,0.18,0.86,0.35,1.3,0.52c0.2,0.08,0.25,0.06,0.33-0.14c0.13-0.31,0.26-0.61,0.39-0.93
		c0.07,0.02,0.13,0.04,0.19,0.05c0.12,0.02,0.16,0.09,0.16,0.21c0,1.92,0,3.84,0,5.76c0,0.02,0,0.05-0.01,0.11
		c-0.08-0.06-0.14-0.11-0.2-0.16c-0.87-0.73-1.74-1.46-2.61-2.2c-0.11-0.09-0.17-0.09-0.28,0c-0.87,0.76-1.75,1.5-2.63,2.25
		C5.03,15.73,4.99,15.76,4.93,15.8z"/>
	<path d="M7.87,7.63c-1.37,0-2.48-1.1-2.49-2.47C5.38,3.8,6.49,2.68,7.84,2.68c1.38-0.01,2.49,1.08,2.49,2.45
		C10.34,6.53,9.26,7.62,7.87,7.63z M7.43,6.71C7.46,6.7,7.47,6.7,7.48,6.69C8.14,5.92,8.8,5.15,9.46,4.37
		c0.14-0.16,0.07-0.37-0.13-0.45C9.16,3.85,9.03,3.9,8.91,4.02c-0.45,0.45-0.9,0.9-1.34,1.35C7.52,5.42,7.47,5.46,7.42,5.51
		C7.22,5.38,7.04,5.25,6.86,5.12C6.71,5.02,6.5,5.03,6.39,5.15C6.27,5.28,6.28,5.41,6.42,5.58c0.2,0.24,0.41,0.47,0.62,0.7
		C7.17,6.43,7.3,6.57,7.43,6.71z"/>
</g>
</svg>
