<?xml version="1.0" encoding="utf-8"?>
<!-- Generator: Adobe Illustrator 25.4.1, SVG Export Plug-In . SVG Version: 6.00 Build 0)  -->
<svg version="1.1" id="Layer_1" xmlns="http://www.w3.org/2000/svg" xmlns:xlink="http://www.w3.org/1999/xlink" x="0px" y="0px"
	 viewBox="0 0 16 16" style="enable-background:new 0 0 16 16;" xml:space="preserve">
<style type="text/css">
	.st0{fill:#020203;}
	.st1{fill:#020304;}
	.st2{fill:#030304;}
</style>
<g>
	<path class="st0" d="M8.97,11.61c-0.41-0.39-0.81-0.77-1.21-1.14c-0.31-0.3-0.63-0.59-0.94-0.89c-0.45-0.44-0.42-1.17,0.04-1.6
		c0.94-0.86,1.86-1.74,2.79-2.61c0.08-0.08,0.07-0.13,0-0.2C9.49,4.96,9.31,4.75,9.14,4.53C9.06,4.44,8.98,4.45,8.89,4.45
		c-0.66,0-1.32,0-1.98,0c-0.28,0-0.51-0.11-0.64-0.37c-0.1-0.23-0.09-0.45,0.06-0.65c0.12-0.16,0.28-0.26,0.49-0.26
		c0.85,0,1.71,0,2.56,0c0.2,0,0.36,0.08,0.48,0.23c0.84,1,1.69,1.99,2.52,3c0.21,0.25,0.27,0.6,0.41,0.9
		c0.1,0.22,0.14,0.52,0.3,0.63c0.17,0.11,0.46,0.03,0.69,0.03c0.38,0,0.77,0,1.15,0c0.43,0,0.72,0.26,0.71,0.64
		c0,0.38-0.29,0.64-0.71,0.65c-0.75,0-1.49,0-2.24,0c-0.34,0-0.56-0.16-0.69-0.47c-0.15-0.36-0.31-0.72-0.45-1.08
		c-0.05-0.14-0.09-0.12-0.19-0.05c-0.69,0.49-1.39,0.98-2.09,1.47C9.15,9.19,9.22,9.24,9.27,9.32c0.51,0.74,1.02,1.48,1.52,2.22
		c0.33,0.49,0.15,0.96-0.42,1.1c-1.25,0.3-2.5,0.6-3.75,0.9c-0.37,0.09-0.65-0.01-0.81-0.26c-0.13-0.21-0.12-0.53,0.03-0.74
		c0.12-0.16,0.29-0.23,0.47-0.27c0.86-0.21,1.73-0.41,2.59-0.62C8.92,11.65,8.93,11.63,8.97,11.61z"/>
	<path class="st0" d="M5.75,8.97c0.06,0.56,0.31,0.98,0.71,1.31c0.13,0.11,0.12,0.17-0.01,0.27c-1.34,1.03-2.68,2.07-4.03,3.11
		c-0.31,0.24-0.68,0.25-0.93,0.03c-0.25-0.21-0.32-0.57-0.18-0.86c0.06-0.11,0.14-0.2,0.24-0.28c1.36-1.17,2.73-2.34,4.09-3.5
		C5.66,9.02,5.69,9.01,5.75,8.97z"/>
	<path class="st0" d="M15,4.91c0,0.74-0.6,1.33-1.33,1.32c-0.74-0.01-1.34-0.6-1.34-1.33c0-0.74,0.6-1.33,1.33-1.33
		C14.42,3.58,15,4.15,15,4.91z"/>
	<path class="st1" d="M5.2,5.57c0.52,0,1.04,0,1.57,0c0.29,0,0.47,0.17,0.47,0.42c-0.01,0.24-0.19,0.4-0.47,0.4
		c-1.06,0-2.12,0-3.18,0c-0.28,0-0.45-0.16-0.45-0.41c0-0.25,0.17-0.41,0.45-0.41C4.12,5.57,4.66,5.57,5.2,5.57
		C5.2,5.57,5.2,5.57,5.2,5.57z"/>
	<path class="st2" d="M2.35,9.23c-0.53,0-1.06,0-1.59,0c-0.3,0-0.48-0.16-0.48-0.41c0-0.23,0.2-0.41,0.48-0.41c1.04,0,2.09,0,3.13,0
		c0.31,0,0.49,0.17,0.48,0.43C4.37,9.09,4.2,9.23,3.89,9.23C3.38,9.23,2.86,9.23,2.35,9.23z"/>
	<path class="st0" d="M3.65,7.89c-0.51,0-1.01,0-1.52,0c-0.33,0-0.51-0.14-0.51-0.4c0-0.27,0.17-0.41,0.49-0.41
		c1.04,0,2.08,0,3.13,0c0.3,0,0.48,0.16,0.48,0.41c0,0.25-0.18,0.4-0.48,0.4C4.71,7.89,4.18,7.89,3.65,7.89z"/>
</g>
</svg>
