<?xml version="1.0" encoding="utf-8"?>
<!-- Generator: Adobe Illustrator 25.4.1, SVG Export Plug-In . SVG Version: 6.00 Build 0)  -->
<svg version="1.1" id="Layer_1" xmlns="http://www.w3.org/2000/svg" xmlns:xlink="http://www.w3.org/1999/xlink" x="0px" y="0px"
	 viewBox="0 0 16 16" style="enable-background:new 0 0 16 16;" xml:space="preserve">
<style type="text/css">
	.st0{fill:#0A0A0A;}
	.st1{fill:#4B4A4A;}
	.st2{fill:#919191;}
	.st3{fill:#A8A8A8;}
</style>
<g>
	<path class="st0" d="M0.37,7.59C0.41,7.53,0.4,7.47,0.4,7.41c0.04-0.52,0.13-1.04,0.3-1.54C0.89,5.33,1.09,4.8,1.4,4.32
		c0.22-0.35,0.44-0.69,0.71-1c0.22-0.24,0.43-0.49,0.68-0.7c0.24-0.2,0.47-0.41,0.72-0.58c0.23-0.15,0.45-0.3,0.7-0.43
		C4.93,1.23,5.69,0.96,6.49,0.8c0.7-0.14,1.39-0.15,2.1-0.09c0.68,0.06,1.33,0.21,1.97,0.44c0.22,0.08,0.44,0.18,0.66,0.28
		c0.07,0.03,0.06,0.06,0.02,0.11c-0.13,0.16-0.28,0.3-0.42,0.44c-0.16,0.16-0.32,0.31-0.48,0.47c-0.03,0.03-0.06,0.03-0.09,0.01
		C9.8,2.3,9.36,2.17,8.9,2.09c-0.5-0.08-1-0.1-1.5-0.06C6.76,2.08,6.15,2.23,5.56,2.47C5.12,2.64,4.7,2.87,4.3,3.14
		c-0.25,0.18-0.47,0.38-0.7,0.58C3.33,3.98,3.1,4.27,2.87,4.56C2.58,4.94,2.38,5.36,2.19,5.79c-0.23,0.51-0.35,1.05-0.4,1.6
		C1.73,7.86,1.74,8.34,1.8,8.81c0.05,0.43,0.15,0.84,0.31,1.24c0.19,0.48,0.4,0.94,0.7,1.36c0.22,0.3,0.44,0.59,0.7,0.84
		c0.22,0.21,0.45,0.43,0.7,0.6c0.23,0.15,0.45,0.31,0.69,0.44c0.67,0.36,1.38,0.59,2.13,0.69c0.71,0.09,1.43,0.08,2.13-0.07
		c0.48-0.1,0.94-0.25,1.39-0.45c0.25-0.12,0.49-0.26,0.72-0.4c0.25-0.15,0.48-0.35,0.71-0.53c0.26-0.21,0.48-0.47,0.7-0.71
		c0.3-0.33,0.51-0.71,0.72-1.1c0.45-0.85,0.65-1.77,0.65-2.73c0-0.74-0.15-1.46-0.41-2.16c-0.04-0.11-0.03-0.18,0.06-0.26
		c0.13-0.12,0.25-0.26,0.38-0.37c0.16-0.14,0.3-0.3,0.47-0.43c0.07-0.06,0.08-0.06,0.12,0.03c0.05,0.11,0.1,0.23,0.15,0.34
		c0.27,0.55,0.42,1.13,0.52,1.73c0.08,0.49,0.09,0.99,0.08,1.49c-0.02,0.84-0.19,1.64-0.52,2.41c-0.2,0.47-0.42,0.93-0.72,1.35
		c-0.21,0.29-0.41,0.58-0.66,0.84c-0.23,0.24-0.46,0.48-0.73,0.69c-0.22,0.17-0.43,0.35-0.67,0.5c-0.46,0.3-0.95,0.56-1.47,0.75
		c-0.56,0.21-1.13,0.36-1.72,0.44c-0.55,0.07-1.1,0.09-1.65,0.04c-0.73-0.06-1.43-0.22-2.11-0.49c-0.29-0.11-0.57-0.25-0.85-0.39
		c-0.24-0.12-0.47-0.27-0.7-0.42c-0.26-0.16-0.48-0.37-0.71-0.56c-0.26-0.22-0.48-0.47-0.72-0.72c-0.25-0.26-0.45-0.55-0.65-0.85
		c-0.33-0.51-0.57-1.07-0.78-1.64C0.54,9.73,0.44,9.13,0.39,8.52c0-0.02,0.01-0.04-0.02-0.05c0-0.03,0-0.05,0-0.08
		c0.01-0.03,0.01-0.06,0-0.09c0-0.13,0-0.25,0-0.38c0.01-0.03,0.01-0.06,0-0.09c0-0.04,0-0.07,0-0.11c0.01-0.02,0.01-0.04,0-0.06
		C0.37,7.64,0.37,7.62,0.37,7.59z"/>
	<path class="st0" d="M15.65,2.72c-0.19,0.15-0.34,0.34-0.51,0.5c-0.32,0.3-0.62,0.62-0.94,0.93C14,4.34,13.8,4.54,13.6,4.73
		c-0.11,0.1-0.22,0.2-0.32,0.31c-0.02,0.02-0.05,0.03-0.08,0.02c-0.42-0.04-0.85-0.08-1.27-0.12c-0.07-0.01-0.12,0-0.17,0.06
		c-0.12,0.13-0.24,0.25-0.37,0.37c-0.25,0.23-0.47,0.48-0.72,0.7c-0.24,0.22-0.45,0.46-0.69,0.67C9.74,6.97,9.52,7.22,9.27,7.44
		C9.06,7.63,8.86,7.83,8.65,8.03C8.44,8.22,8.07,8.2,7.89,7.93C7.84,7.85,7.78,7.78,7.77,7.68c-0.01-0.12,0-0.22,0.1-0.32
		c0.21-0.2,0.39-0.42,0.6-0.62C8.72,6.5,8.94,6.25,9.19,6.02C9.43,5.8,9.64,5.56,9.88,5.34c0.24-0.22,0.47-0.47,0.71-0.7
		c0.15-0.13,0.28-0.28,0.42-0.41c0.03-0.03,0.04-0.06,0.04-0.1c-0.04-0.42-0.08-0.83-0.12-1.25c-0.01-0.06,0.01-0.11,0.05-0.15
		c0.34-0.33,0.67-0.67,1.02-0.99c0.24-0.23,0.47-0.47,0.71-0.69c0.19-0.17,0.36-0.36,0.55-0.53c0.02-0.02,0.04-0.03,0.05-0.06
		c0.01,0,0.01,0,0.02,0c0.05,0.07,0.04,0.15,0.05,0.23c0.03,0.27,0.04,0.55,0.09,0.82c0.04,0.29,0.06,0.59,0.1,0.88
		c0.01,0.07,0.03,0.1,0.1,0.1c0.25,0.03,0.51,0.05,0.76,0.07c0.38,0.04,0.75,0.07,1.13,0.11c0.03,0,0.07,0.01,0.09,0.03
		C15.65,2.71,15.65,2.72,15.65,2.72z"/>
	<path class="st1" d="M0.37,7.83c0.02,0.03,0.02,0.06,0,0.09C0.37,7.89,0.37,7.86,0.37,7.83z"/>
	<path class="st2" d="M0.37,8.31c0.02,0.03,0.03,0.06,0,0.09C0.37,8.37,0.37,8.34,0.37,8.31z"/>
	<path class="st3" d="M0.37,7.67c0.03,0.02,0.02,0.04,0,0.06C0.37,7.71,0.37,7.69,0.37,7.67z"/>
	<path class="st0" d="M10.3,3.98c-0.14,0.13-0.26,0.27-0.41,0.39C9.76,4.48,9.65,4.61,9.53,4.73c-0.05,0.05-0.11,0.1-0.15,0.16
		C9.31,4.97,9.25,4.97,9.17,4.93c-0.2-0.08-0.41-0.15-0.63-0.18C8.08,4.68,7.62,4.67,7.16,4.78C6.62,4.89,6.14,5.12,5.71,5.47
		C5.42,5.7,5.19,5.98,4.99,6.29c-0.38,0.57-0.52,1.2-0.51,1.88C4.5,8.7,4.65,9.22,4.93,9.68c0.19,0.32,0.42,0.61,0.7,0.85
		c0.2,0.16,0.4,0.32,0.63,0.44c0.94,0.47,1.9,0.55,2.89,0.18c0.26-0.1,0.49-0.23,0.72-0.38c0.27-0.17,0.48-0.39,0.69-0.63
		c0.4-0.45,0.61-0.99,0.72-1.57c0.02-0.11,0.03-0.23,0.03-0.34c0-0.07,0.03-0.14,0.02-0.21c-0.03-0.42-0.09-0.84-0.26-1.24
		c-0.03-0.07-0.02-0.12,0.04-0.17c0.3-0.28,0.58-0.57,0.87-0.85c0.07-0.07,0.08-0.07,0.13,0.02c0.22,0.4,0.38,0.83,0.47,1.28
		c0.2,1.03,0.11,2.03-0.35,2.99c-0.22,0.46-0.51,0.88-0.88,1.24c-0.21,0.21-0.43,0.4-0.67,0.57c-0.62,0.41-1.29,0.69-2.03,0.81
		c-0.76,0.12-1.51,0.05-2.24-0.17c-0.51-0.16-0.98-0.4-1.41-0.72c-0.26-0.19-0.49-0.42-0.71-0.66c-0.29-0.3-0.49-0.65-0.69-1.01
		c-0.36-0.68-0.5-1.4-0.49-2.16C3.13,7.3,3.26,6.69,3.53,6.11c0.18-0.38,0.39-0.75,0.68-1.06c0.22-0.24,0.44-0.48,0.7-0.68
		c0.43-0.33,0.9-0.58,1.42-0.76C6.94,3.4,7.57,3.33,8.22,3.37C8.79,3.4,9.33,3.55,9.85,3.75C10.01,3.81,10.15,3.89,10.3,3.98z"/>
	<path class="st0" d="M7.86,10.03c-0.54-0.01-1-0.19-1.39-0.56C6.05,9.06,5.85,8.56,5.86,7.98c0.01-0.45,0.15-0.86,0.44-1.2
		c0.37-0.43,0.84-0.69,1.41-0.74c0.12-0.01,0.23-0.02,0.35-0.01C8.11,6.04,8.14,6.05,8.1,6.1C8,6.22,7.89,6.33,7.78,6.44
		C7.56,6.65,7.33,6.86,7.19,7.13C7.08,7.35,7.01,7.6,7.07,7.85c0.1,0.4,0.31,0.72,0.69,0.89C8.27,8.96,8.73,8.88,9.15,8.5
		c0.22-0.2,0.43-0.41,0.65-0.61C9.84,7.86,9.88,7.8,9.93,7.83c0.05,0.02,0.03,0.09,0.03,0.14c0,0.16-0.01,0.32-0.05,0.47
		c-0.1,0.45-0.33,0.82-0.69,1.11c-0.2,0.17-0.42,0.33-0.68,0.4C8.32,10,8.1,10.03,7.86,10.03z"/>
</g>
</svg>
